<?xml version="1.0" encoding="UTF-8"?>
<svg version="1.1" xmlns="http://www.w3.org/2000/svg" width="809" height="801">
<path d="M0 0 C28.51950456 -0.0466605 57.03900343 -0.08195959 85.55853844 -0.10362434 C98.79978077 -0.11394972 112.04099942 -0.12803409 125.28222656 -0.15087891 C136.81935314 -0.17077424 148.35646257 -0.18370725 159.89360583 -0.18817699 C166.00596972 -0.19079092 172.11828456 -0.19696085 178.23063278 -0.21146011 C183.97772973 -0.22498316 189.72475717 -0.22923339 195.47186852 -0.22621536 C197.58670745 -0.2267679 199.70154859 -0.23077662 201.81637383 -0.23841095 C204.69280408 -0.2482897 207.56896827 -0.24599492 210.44540405 -0.24050903 C211.29169605 -0.24633472 212.13798804 -0.2521604 213.00992525 -0.25816262 C218.77175758 -0.22824242 218.77175758 -0.22824242 221 2 C221.63421189 4.40593227 222.16318513 6.74883475 222.625 9.1875 C222.88539063 10.48042969 223.14578125 11.77335938 223.4140625 13.10546875 C223.97205885 16.81428447 224.04207385 20.25851313 224 24 C207.35426736 24.17713755 190.70843315 24.34283053 174.0625 24.5 C172.80522346 24.51187725 171.54794693 24.5237545 170.25257111 24.53599167 C128.9591448 24.92275571 87.67026115 25.09090358 46.375 25.0625 C45.12135273 25.06164398 43.86770546 25.06078796 42.57606888 25.05990601 C27.38403057 25.04874149 12.19201446 25.02901927 -3 25 C-2.88437222 22.52008842 -2.75768577 20.04151241 -2.625 17.5625 C-2.5940625 16.87478516 -2.563125 16.18707031 -2.53125 15.47851562 C-2.31627041 11.62679803 -1.84148234 7.98944883 -0.97412109 4.22631836 C-0.70128799 3.03261879 -0.70128799 3.03261879 -0.42294312 1.81480408 C-0.28337189 1.21591873 -0.14380066 0.61703339 0 0 Z " fill="#000000" transform="translate(201,507)"/>
<path d="M0 0 C0.87729692 -0.00226556 1.75459384 -0.00453111 2.65847552 -0.00686532 C5.59782072 -0.01319487 8.53711969 -0.01237663 11.47647095 -0.0115509 C13.5840511 -0.01454303 15.69163071 -0.01794569 17.79920959 -0.02172852 C23.52441047 -0.03056692 29.24959641 -0.03290656 34.97480345 -0.0335443 C39.75368235 -0.03449372 44.53255778 -0.03817237 49.31143534 -0.0417164 C60.58568729 -0.04986024 71.85993124 -0.05230068 83.13418579 -0.05158997 C94.7658686 -0.05098908 106.39750504 -0.06154332 118.02917612 -0.07733363 C128.01486853 -0.09040663 138.00054579 -0.09577397 147.98624671 -0.09513456 C153.9505785 -0.09487951 159.91486908 -0.0977343 165.87919235 -0.10831261 C171.48848838 -0.11798959 177.09770378 -0.11807546 182.70700264 -0.11079597 C184.76491603 -0.10974966 186.82283442 -0.11211577 188.88073921 -0.11815643 C191.69166519 -0.12587264 194.50231245 -0.12123393 197.31323242 -0.11352539 C198.53236251 -0.12124074 198.53236251 -0.12124074 199.7761215 -0.12911195 C205.33876026 -0.09544258 211.14941467 -0.00047242 215.28359985 4.13371277 C215.78359985 7.50871277 215.78359985 7.50871277 215.28359985 11.13371277 C211.27947121 14.31485399 207.24568484 16.06388789 202.42422485 17.67668152 C201.47854645 17.997575 201.47854645 17.997575 200.51376343 18.32495117 C198.52305521 18.99866927 196.52859764 19.66031844 194.53359985 20.32121277 C192.52526454 20.99538809 190.51777198 21.67200992 188.5105896 22.34960938 C186.70096781 22.95912287 184.88930537 23.56256778 183.07754517 24.16569519 C180.37224562 25.03532558 180.37224562 25.03532558 178.28359985 26.13371277 C176.02827202 26.24766962 173.76952177 26.29533888 171.51139832 26.31452942 C170.80691258 26.32173394 170.10242684 26.32893845 169.37659305 26.33636129 C167.00389601 26.35917371 164.63120946 26.37468219 162.25845337 26.39006042 C160.56173952 26.40450548 158.86502831 26.41926308 157.1683197 26.43431091 C141.65557617 26.5647632 126.14210663 26.63049189 110.62892246 26.6821537 C99.1647885 26.72102769 87.70163988 26.78930684 76.23793846 26.89670146 C68.174964 26.96968108 60.11225808 27.008009 52.04896683 27.02117956 C47.23531459 27.03002721 42.4228796 27.05413448 37.60959053 27.11584854 C33.07423421 27.17333477 28.54071513 27.18770122 24.00504875 27.16997528 C22.34703723 27.17084965 20.68894728 27.18695542 19.03126526 27.22002029 C9.22319352 27.405382 2.84810607 26.46886568 -4.61540318 19.38336754 C-5.30873218 18.64098146 -6.00206118 17.89859539 -6.71640015 17.13371277 C-7.27697837 16.55851709 -7.83755659 15.98332142 -8.41512203 15.39069557 C-11.73968144 11.71703796 -13.62096945 8.28090333 -13.84140015 3.32121277 C-13.80015015 2.59933777 -13.75890015 1.87746277 -13.71640015 1.13371277 C-9.15605052 -0.01299094 -4.67001647 -0.00884957 0 0 Z " fill="#000000" transform="translate(206.71640014648438,552.8662872314453)"/>
<path d="M0 0 C5.08862781 0.54767631 10.0932773 0.67255566 15.20755196 0.65511417 C16.14306259 0.6559686 17.07857322 0.65682302 18.04243267 0.65770334 C21.14842632 0.65933841 24.25436486 0.65386934 27.36035347 0.64838505 C29.59825324 0.64810272 31.8361531 0.64826179 34.07405281 0.64882755 C40.12906082 0.64911376 46.18404891 0.64324554 52.2390523 0.6362536 C58.57447807 0.62999069 64.90990433 0.62941394 71.24533272 0.62822819 C81.8723813 0.62547598 92.49942204 0.61923519 103.12646675 0.61029911 C114.06819815 0.60110803 125.00992758 0.59403551 135.95166206 0.5897913 C136.62708282 0.58952857 137.30250359 0.58926585 137.99839164 0.58899517 C141.38706946 0.58769005 144.77574729 0.58642636 148.16442513 0.58518326 C176.23869146 0.57483103 204.31294975 0.55715579 232.38720894 0.53485966 C231.91904668 1.97936876 231.44743438 3.42276001 230.97436714 4.8656702 C230.71210838 5.66957691 230.44984962 6.47348362 230.17964363 7.30175114 C227.22127105 15.63854795 221.95348323 20.29377007 214.17746162 24.11017704 C207.60648407 26.51098502 200.51784401 25.96979895 193.61816597 25.95478153 C192.02059018 25.96212991 190.42301969 25.97071837 188.82545662 25.98044682 C184.50043223 26.00260481 180.17559873 26.00559591 175.85052538 26.0036993 C172.22570973 26.0035792 168.60093391 26.01216079 164.97612941 26.02047682 C156.40967815 26.03969506 147.84332429 26.04260246 139.27685738 26.03583622 C130.48139113 26.02921563 121.68634641 26.05198323 112.89096558 26.08914995 C105.309245 26.12000898 97.72765876 26.13118898 90.14587677 26.12731314 C85.63150707 26.12526012 81.11746459 26.13049612 76.60315514 26.15520573 C72.34622631 26.1777362 68.08997233 26.17538096 63.83303833 26.15527821 C62.28608152 26.1519126 60.73907695 26.15676043 59.19218445 26.17126179 C43.16219919 26.3109456 28.85355597 22.16286786 14.32470894 15.47235966 C12.9141523 14.8410413 12.9141523 14.8410413 11.47509956 14.19696903 C9.64200575 13.37532517 7.81153585 12.5477945 5.98413277 11.71357059 C2.76294946 10.25151616 -0.48074979 8.84341921 -3.72949028 7.4437952 C-6.38201126 6.16361169 -8.50210638 4.57745774 -10.61279106 2.53485966 C-10.61279106 1.87485966 -10.61279106 1.21485966 -10.61279106 0.53485966 C-6.90320215 -0.34372719 -3.74647711 -0.45478429 0 0 Z " fill="#000000" transform="translate(475.61279106140137,562.4651403427124)"/>
<path d="M0 0 C28.79754911 -0.02332526 57.59509682 -0.04097733 86.39265347 -0.05181217 C99.76283033 -0.05697593 113.13300082 -0.06398987 126.50317383 -0.07543945 C138.15199206 -0.08538387 149.80080605 -0.09185285 161.44962841 -0.09408849 C167.62174794 -0.09539601 173.79385534 -0.09848446 179.96597099 -0.10573006 C185.76804298 -0.11248646 191.57009776 -0.11461774 197.37217331 -0.11310768 C199.50839265 -0.11338418 201.64461252 -0.11539154 203.78082848 -0.11920547 C206.68381751 -0.1241368 209.58674046 -0.12300037 212.48973083 -0.12025452 C213.34671757 -0.12316736 214.2037043 -0.1260802 215.08666033 -0.12908131 C220.88587879 -0.11412121 220.88587879 -0.11412121 222 1 C222.91407265 6.01781141 223.10756671 10.8449614 223.0625 15.9375 C223.05798828 16.62134766 223.05347656 17.30519531 223.04882812 18.00976562 C223.0371956 19.67321604 223.01926694 21.3366205 223 23 C174.14078496 23.73025397 125.28448484 24.11033031 76.4200123 24.12283063 C71.71342616 24.12411949 67.0068463 24.12787777 62.30026245 24.13256836 C55.90533764 24.13841055 49.51043676 24.13865576 43.11551094 24.13431931 C40.74133886 24.13332339 38.36716553 24.1339082 35.99299431 24.13615799 C32.73147051 24.13870235 29.47001484 24.1349152 26.20849609 24.12939453 C25.25539771 24.13142128 24.30229933 24.13344803 23.32031918 24.13553619 C18.7399519 24.12088221 14.52506581 23.76216709 10 23 C9.01 23.33 8.02 23.66 7 24 C4.93854893 24.068991 2.87498599 24.08467727 0.8125 24.0625 C-0.81751953 24.04896484 -0.81751953 24.04896484 -2.48046875 24.03515625 C-3.31191406 24.02355469 -4.14335937 24.01195312 -5 24 C-4.81824219 23.12601563 -4.81824219 23.12601563 -4.6328125 22.234375 C-3.42642008 16.3323321 -2.39296107 10.42097349 -1.46484375 4.46875 C-1 2 -1 2 0 0 Z " fill="#000000" transform="translate(479,517)"/>
<path d="M0 0 C0.33 0.99 0.66 1.98 1 3 C1.66 3.04125 2.32 3.0825 3 3.125 C7.43795194 4.41940265 10.83495996 6.62192842 14 10 C15.01123839 14.20052871 14.19134077 17.29458294 12.47717285 21.16880798 C10.46720295 24.23676699 9.4054487 24.90847653 5.78105164 25.72662544 C1.35230853 25.99847426 -3.01367558 26.00135023 -7.44726562 25.92407227 C-9.15462458 25.92345246 -10.86198789 25.92634421 -12.56933594 25.93247986 C-17.21198689 25.93905605 -21.85301682 25.8960365 -26.49533272 25.84408307 C-31.37975433 25.79764229 -36.26419523 25.79601307 -41.14880371 25.78929138 C-49.37748171 25.77179985 -57.60556599 25.72542266 -65.83398438 25.65844727 C-77.3369347 25.56483484 -88.8396524 25.5206197 -100.34291553 25.48781502 C-168.04947167 25.28332055 -168.04947167 25.28332055 -198 24 C-196.94925477 15.17694342 -196.94925477 15.17694342 -195.625 11.97265625 C-195.23054687 11.00295898 -195.23054687 11.00295898 -194.828125 10.01367188 C-194.55484375 9.36978516 -194.2815625 8.72589844 -194 8.0625 C-193.72671875 7.39154297 -193.4534375 6.72058594 -193.171875 6.02929688 C-191.16528614 1.16528614 -191.16528614 1.16528614 -190 0 C-187.62096757 -0.11224193 -185.27023931 -0.15940918 -182.89007568 -0.16494751 C-181.76090001 -0.17341282 -181.76090001 -0.17341282 -180.60891271 -0.18204916 C-178.06708122 -0.19985647 -175.52526909 -0.21049514 -172.98339844 -0.22119141 C-171.168724 -0.23240015 -169.35405214 -0.24403207 -167.53938293 -0.25605774 C-162.59506793 -0.28747442 -157.65073908 -0.31255073 -152.7063818 -0.3362546 C-147.53969124 -0.36179254 -142.37302856 -0.39214153 -137.20635986 -0.42172241 C-128.52381996 -0.47061602 -119.84126558 -0.51528032 -111.15869141 -0.55761719 C-101.1175356 -0.60664402 -91.07644006 -0.66294677 -81.03534484 -0.72303832 C-72.42387146 -0.77437683 -63.8123828 -0.82171571 -55.20086884 -0.86572587 C-50.05367423 -0.89203936 -44.90649743 -0.91975817 -39.75933075 -0.9510994 C-34.91673953 -0.9803681 -30.07414861 -1.00462048 -25.23151207 -1.02499962 C-23.45333889 -1.03330467 -21.6751729 -1.04336007 -19.89702034 -1.05528831 C-17.47062759 -1.07128098 -15.04428906 -1.08095251 -12.61785889 -1.08901978 C-11.56099023 -1.09820228 -11.56099023 -1.09820228 -10.48277068 -1.10757029 C-6.85815125 -1.11242507 -3.52470528 -0.86108802 0 0 Z M-1 5 C-3.1519437 8.22791555 -3.20086443 9.28400809 -3 13 C-0.4345406 10.4345406 -0.45953913 8.52313332 0 5 C-0.33 5 -0.66 5 -1 5 Z " fill="#000000" transform="translate(411,460)"/>
<path d="M0 0 C0.77527682 0.00291284 1.55055364 0.00582568 2.34932369 0.00882679 C3.16688859 0.00797237 3.98445348 0.00711794 4.82679307 0.00623763 C7.58761584 0.00458032 10.34837888 0.01010827 13.10919613 0.01555592 C15.07976191 0.01583776 17.05032779 0.01568011 19.02089351 0.01511341 C24.38844083 0.01482533 29.75596601 0.02072381 35.12350816 0.02768737 C40.72627521 0.03391911 46.32904272 0.03452456 51.9318127 0.03571278 C62.54949132 0.03882663 73.16715969 0.04704074 83.78483379 0.05706227 C95.86926898 0.06822174 107.95370464 0.07373344 120.03814369 0.0787577 C144.90420006 0.08922331 169.77024733 0.10682378 194.63629574 0.12908131 C196.38738808 4.14304236 198.00379776 7.88133556 198.82379574 12.19158131 C198.98235042 12.98693287 199.14090511 13.78228443 199.30426449 14.60173756 C199.63629574 17.12908131 199.63629574 17.12908131 199.63629574 23.12908131 C128.35629574 23.12908131 57.07629574 23.12908131 -16.36370426 23.12908131 C-21.2174592 12.20813269 -21.2174592 12.20813269 -20.36370426 8.12908131 C-17.0107644 4.34350405 -12.96649082 3.13884752 -8.25432926 1.74236256 C-2.90852169 0.00828861 -2.90852169 0.00828861 0 0 Z " fill="#000000" transform="translate(495.36370426416397,468.8709186911583)"/>
<path d="M0 0 C34.98 0 69.96 0 106 0 C109.375 13.5 109.375 13.5 109.6875 19.25 C109.75324219 20.34828125 109.81898438 21.4465625 109.88671875 22.578125 C109.94279297 23.77695313 109.94279297 23.77695313 110 25 C96.67427573 25.1621987 83.34878632 25.2865744 70.02227592 25.3626852 C63.83415737 25.39921515 57.6467142 25.44876331 51.45898438 25.52807617 C45.48725881 25.60414121 39.51618278 25.64599208 33.54401016 25.6641407 C31.26575621 25.67707367 28.98753777 25.70232937 26.70956039 25.7401104 C23.51766953 25.79094296 20.32846105 25.79792296 17.13623047 25.79467773 C16.19467606 25.81984467 15.25312164 25.8450116 14.28303528 25.87094116 C9.99687593 25.82379985 6.72765159 25.46932941 3.4289856 22.57533264 C1 18 1 18 0 0 Z " fill="#000000" transform="translate(140,127)"/>
<path d="M0 0 C0.93972656 0.25136719 0.93972656 0.25136719 1.8984375 0.5078125 C2.71570313 0.71148437 3.53296875 0.91515625 4.375 1.125 C5.18710937 1.33382812 5.99921875 1.54265625 6.8359375 1.7578125 C7.55007813 1.83773437 8.26421875 1.91765625 9 2 C9.66 1.34 10.32 0.68 11 0 C13.84028355 -0.20396206 16.58346182 -0.28316016 19.42529297 -0.2746582 C20.2969812 -0.27976913 21.16866943 -0.28488007 22.06677246 -0.29014587 C24.95864664 -0.30408652 27.85028364 -0.30308156 30.7421875 -0.30078125 C32.74756967 -0.30466613 34.75295103 -0.30900036 36.7583313 -0.31376648 C40.96668156 -0.32123861 45.17494794 -0.32093053 49.38330078 -0.31567383 C54.77949073 -0.30988218 60.17533712 -0.32679809 65.57147026 -0.3500185 C69.71499646 -0.36474361 73.85843973 -0.36562913 78.00198746 -0.36250877 C79.9915243 -0.36302274 81.98106569 -0.36827461 83.97057724 -0.37832069 C86.75258496 -0.39064213 89.53392118 -0.38391891 92.31591797 -0.37231445 C93.13996124 -0.37995819 93.96400452 -0.38760193 94.8130188 -0.39547729 C98.12906992 -0.36486752 100.56241453 -0.23718678 103.50759888 1.35920715 C105 3 105 3 105.5625 5.625 C104.27100824 13.37395053 99.35419655 20.427376 93 25 C89.59328672 25.95542684 86.36173348 25.89006763 82.84204102 25.79467773 C81.84615463 25.79569992 80.85026825 25.79672211 79.82420349 25.79777527 C76.54966498 25.79291873 73.27795436 25.7385665 70.00390625 25.68359375 C67.72706119 25.67053074 65.45019639 25.66056989 63.17332458 25.65357971 C57.19366707 25.62691003 51.2152083 25.55819474 45.23602295 25.48065186 C39.12951879 25.40892044 33.02282007 25.37704693 26.91601562 25.34179688 C14.94348503 25.26682461 2.97184237 25.14742201 -9 25 C-8.77082032 23.39272673 -8.51579198 21.78912584 -8.25 20.1875 C-8.04117187 18.84751953 -8.04117187 18.84751953 -7.828125 17.48046875 C-6.81902245 14.45792103 -5.57687961 13.76107878 -3 12 C-1.87353193 9.06252471 -1.87353193 9.06252471 -1.25 5.8125 C-1.00765625 4.72582031 -0.7653125 3.63914063 -0.515625 2.51953125 C-0.34546875 1.68808594 -0.1753125 0.85664063 0 0 Z " fill="#000000" transform="translate(279,135)"/>
<path d="M0 0 C9.8228108 -0.02317953 19.64561509 -0.04094373 29.46844769 -0.05181217 C34.02967483 -0.05702871 38.59088324 -0.06410407 43.15209961 -0.07543945 C47.55466203 -0.08631197 51.95720645 -0.09228611 56.35978127 -0.09487724 C58.03867692 -0.09672361 59.7175716 -0.10032909 61.39645958 -0.10573006 C63.74959816 -0.11299839 66.10266253 -0.11398849 68.45581055 -0.11352539 C69.1484903 -0.11712067 69.84117004 -0.12071594 70.55484009 -0.12442017 C74.17772948 -0.11671495 77.46126946 0.27159505 81 1 C81.33 0.67 81.66 0.34 82 0 C84.53049402 -0.07313567 87.03304837 -0.09247527 89.5625 -0.0625 C90.62887695 -0.05573242 90.62887695 -0.05573242 91.71679688 -0.04882812 C93.47790013 -0.03700864 95.23896036 -0.01907263 97 0 C98.2180091 8.52606371 98 16.12869171 98 25 C64.67 25 31.34 25 -3 25 C-3 18.11374823 -2.90643491 13.32115998 -1.5 6.875 C-1.35691406 6.2046875 -1.21382812 5.534375 -1.06640625 4.84375 C-0.72000217 3.22719762 -0.36137296 1.61327213 0 0 Z " fill="#000000" transform="translate(146,80)"/>
<path d="M0 0 C30.36 0 60.72 0 92 0 C88 20 88 20 86 25 C54.65 25 23.3 25 -9 25 C-4 8 -4 8 0 0 Z " fill="#000000" transform="translate(159,33)"/>
<path d="M0 0 C31.35 0 62.7 0 95 0 C97 8 97 8 98 24 C65 24 32 24 -2 24 C-1 3 -1 3 0 0 Z M15 16 C16 18 16 18 16 18 Z " fill="#000000" transform="translate(279,89)"/>
<path d="M0 0 C11.79577606 -0.09262544 23.5914658 -0.16372724 35.38753128 -0.20724869 C40.86476728 -0.22813543 46.34175472 -0.25647319 51.81884766 -0.30175781 C57.1032328 -0.34517637 62.38737867 -0.36912892 67.67192841 -0.37950897 C69.68940753 -0.38690749 71.70687336 -0.40135487 73.72425079 -0.42292023 C76.54725076 -0.45190101 79.36925835 -0.45595822 82.19238281 -0.45410156 C83.02891891 -0.46848267 83.86545502 -0.48286377 84.7273407 -0.49768066 C88.39617439 -0.47152142 90.53390555 -0.35279286 93.50531006 1.89630127 C95.10108068 4.14226582 95.64471245 5.60888629 96.0625 8.3125 C96.61808043 11.38839529 97.32177821 13.93858171 98.6875 16.75 C100.11755935 20.29109934 99.90439428 21.43098097 99 25 C89.30757196 25.02318046 79.61515347 25.0409442 69.92270374 25.05181217 C65.42201063 25.0570285 60.92133649 25.06410349 56.4206543 25.07543945 C52.07644654 25.0863127 47.73225704 25.09228626 43.38803673 25.09487724 C41.73146973 25.09672348 40.07490372 25.10032871 38.4183445 25.10573006 C36.09633865 25.11299935 33.774408 25.11398845 31.45239258 25.11352539 C30.42739906 25.1189183 30.42739906 25.1189183 29.38169861 25.12442017 C26.55025513 25.11831878 23.94047597 24.98806501 21.15922546 24.43040466 C18.96272308 23.76304092 18.96272308 23.76304092 17 25 C15.12620395 25.07033769 13.24998898 25.0843022 11.375 25.0625 C10.37210937 25.05347656 9.36921875 25.04445313 8.3359375 25.03515625 C7.56507813 25.02355469 6.79421875 25.01195313 6 25 C5.81824219 23.91460937 5.63648438 22.82921875 5.44921875 21.7109375 C5.19580466 20.26553863 4.94187075 18.82023082 4.6875 17.375 C4.51057617 16.30572266 4.51057617 16.30572266 4.33007812 15.21484375 C3.51603594 10.66455664 2.16108391 7.12845722 0 3 C0 2.01 0 1.02 0 0 Z " fill="#000000" transform="translate(270,41)"/>
<path d="M0 0 C7.94950668 2.15556305 15.82536206 8.85625853 21.515625 14.68212891 C22.010625 16.16712891 22.010625 16.16712891 22.515625 17.68212891 C-9.164375 17.68212891 -40.844375 17.68212891 -73.484375 17.68212891 C-73.484375 17.02212891 -73.484375 16.36212891 -73.484375 15.68212891 C-72.42750488 15.46596924 -71.37063477 15.24980957 -70.28173828 15.02709961 C-66.26577791 14.20396443 -62.25157674 13.37249645 -58.23779297 12.53881836 C-56.51819207 12.18279101 -54.79815452 11.82886457 -53.07763672 11.47729492 C-43.78712347 9.57733332 -34.56179516 7.5452286 -25.4140625 5.03759766 C-24.65852081 4.8326619 -23.90297913 4.62772614 -23.12454224 4.4165802 C-5.15184283 -0.6512511 -5.15184283 -0.6512511 0 0 Z " fill="#000000" transform="translate(648.484375,429.31787109375)"/>
<path d="M0 0 C17.71602262 7.05899968 37.82768525 10.18674141 56.5625 13.375 C56.5625 14.035 56.5625 14.695 56.5625 15.375 C26.5325 15.375 -3.4975 15.375 -34.4375 15.375 C-33.27102904 10.70911617 -31.33602103 9.21626516 -27.75 6.375 C-27.23244141 5.94960938 -26.71488281 5.52421875 -26.18164062 5.0859375 C-16.70884952 -2.6055442 -11.60208932 -4.92529104 0 0 Z " fill="#000000" transform="translate(265.4375,422.625)"/>
<path d="M0 0 C7.47474272 -0.05067427 14.94944119 -0.08572275 22.42431641 -0.10986328 C24.96762752 -0.11992616 27.51092705 -0.13357774 30.05419922 -0.15087891 C33.70803688 -0.17511427 37.36172168 -0.18648027 41.015625 -0.1953125 C42.15429016 -0.20563507 43.29295532 -0.21595764 44.46612549 -0.22659302 C46.05732208 -0.22681961 46.05732208 -0.22681961 47.68066406 -0.22705078 C49.07964935 -0.23371262 49.07964935 -0.23371262 50.50689697 -0.24050903 C53.12282124 0.01184853 54.75396493 0.67219958 57 2 C57 2.99 57 3.98 57 5 C56.22398437 5.22139648 55.44796875 5.44279297 54.6484375 5.67089844 C51.09658742 6.68919436 47.54832406 7.71948776 44 8.75 C42.16888672 9.27207031 42.16888672 9.27207031 40.30078125 9.8046875 C32.45528421 12.09472447 25.50300932 14.4077731 18.875 19.3125 C16 21 16 21 12.875 21.1875 C8.80469254 19.50628605 7.8103847 16.77163479 6 13 C4.92174264 11.05967054 3.83816178 9.12229232 2.75 7.1875 C0 2.25247525 0 2.25247525 0 0 Z " fill="#000000" transform="translate(184,174)"/>
<path d="M0 0 C17.16 0 34.32 0 52 0 C48.54566745 10.36299766 48.54566745 10.36299766 46.0625 15 C45.57910156 15.928125 45.09570312 16.85625 44.59765625 17.8125 C43 20 43 20 41.07421875 20.97265625 C38.24549654 21.00994637 37.06221088 20.05038836 34.75 18.4375 C23.96729658 11.60316886 11.24458228 8.25246717 -1 5 C-0.67 3.35 -0.34 1.7 0 0 Z " fill="#000000" transform="translate(284,182)"/>
<path d="M0 0 C5.85325691 2.90658306 10.1477197 6.78078153 14 12 C11.0339853 12.85609898 8.40606053 13.12199467 5.32324219 13.11352539 C4.40258972 13.11344986 3.48193726 13.11337433 2.53338623 13.11329651 C1.54783752 13.10813522 0.56228882 13.10297394 -0.453125 13.09765625 C-1.46848328 13.0962413 -2.48384155 13.09482635 -3.52996826 13.09336853 C-6.77000892 13.08777516 -10.00998025 13.07522385 -13.25 13.0625 C-15.44791567 13.05748414 -17.64583242 13.05292139 -19.84375 13.04882812 C-25.22919029 13.0378079 -30.61459019 13.02107633 -36 13 C-36 12.34 -36 11.68 -36 11 C-34.84213989 10.60675537 -34.84213989 10.60675537 -33.66088867 10.20556641 C-30.16821105 9.0165362 -26.67784745 7.8208521 -23.1875 6.625 C-21.36508789 6.00625 -21.36508789 6.00625 -19.50585938 5.375 C-18.34248047 4.97539062 -17.17910156 4.57578125 -15.98046875 4.1640625 C-14.90692139 3.79748535 -13.83337402 3.4309082 -12.72729492 3.05322266 C-3.61363764 -0.46627582 -3.61363764 -0.46627582 0 0 Z " fill="#000000" transform="translate(323,6)"/>
<path d="M0 0 C1.98 0.66 3.96 1.32 6 2 C6 1.34 6 0.68 6 0 C7.58246707 -0.08153933 9.16616273 -0.13943557 10.75 -0.1875 C12.07257813 -0.23970703 12.07257813 -0.23970703 13.421875 -0.29296875 C16.56032222 0.06367298 17.48788723 1.11591542 20 3 C23.02958478 4.2277596 26.13455113 5.20175251 29.25 6.1875 C30.09046875 6.46013672 30.9309375 6.73277344 31.796875 7.01367188 C33.8623827 7.68261471 35.93090634 8.34223257 38 9 C38 9.66 38 10.32 38 11 C21.83 11 5.66 11 -11 11 C-9.84625622 7.53876866 -8.96327708 6.98850152 -6.0625 4.9375 C-3.85557073 3.36341071 -1.92088796 1.92088796 0 0 Z " fill="#000000" transform="translate(194,0)"/>
<path d="M0 0 C12.21 0 24.42 0 37 0 C37 0.66 37 1.32 37 2 C35.74703125 2.39832031 34.4940625 2.79664063 33.203125 3.20703125 C31.55195317 3.74178576 29.90091862 4.27696428 28.25 4.8125 C27.425 5.07353516 26.6 5.33457031 25.75 5.60351562 C20.9838167 7.13408575 20.9838167 7.13408575 16.734375 9.703125 C13.74946748 11.93508288 10.86576443 11.05735546 7.34765625 10.5703125 C4.12684718 9.78788634 2.75192994 8.81832208 1 6 C0.67 4.02 0.34 2.04 0 0 Z " fill="#000000" transform="translate(243,601)"/>
<path d="M0 0 C11.55 0 23.1 0 35 0 C33.75206612 7.48760331 33.75206612 7.48760331 29 11 C22.16997099 11.95386439 16.74222456 9.17774662 10.5625 6.5 C9.54478516 6.07074219 8.52707031 5.64148438 7.47851562 5.19921875 C4.98074398 4.14382228 2.48841036 3.07723943 0 2 C0 1.34 0 0.68 0 0 Z " fill="#000000" transform="translate(621,610)"/>
<path d="M0 0 C2.97 0 5.94 0 9 0 C9 0.33 9 0.66 9 1 C6.03 1 3.06 1 0 1 C0 0.67 0 0.34 0 0 Z " fill="#000000" transform="translate(612,430)"/>
<path d="M0 0 C1.98 0 3.96 0 6 0 C6 0.33 6 0.66 6 1 C4.02 1 2.04 1 0 1 C0 0.67 0 0.34 0 0 Z " fill="#000000" transform="translate(782,430)"/>
</svg>
