<?xml version="1.0" encoding="UTF-8"?>
<svg version="1.1" xmlns="http://www.w3.org/2000/svg" width="800" height="800">
<path d="M0 0 C5.13808269 0.92193169 7.8716124 3.9827864 11 8 C19.7622565 24.09028176 18.81669185 42.35006398 13.75390625 59.62109375 C10.60990134 69.53853831 6.92574261 79.26845592 3.16748047 88.96630859 C2.13785291 91.64178999 1.14084147 94.32583454 0.16015625 97.01953125 C-0.35078642 98.38831078 -0.8624276 99.75682992 -1.375 101.125 C-1.79523438 102.26195312 -2.21546875 103.39890625 -2.6484375 104.5703125 C-4 107 -4 107 -5.9609375 107.95703125 C-9.1203128 108.02360812 -11.30691429 106.53016234 -14 105 C-13.38464225 101.0617104 -12.1362385 97.62583945 -10.62109375 93.96484375 C-9.79906432 91.70778085 -9.79906432 91.70778085 -10 88 C-12.31 92.95 -14.62 97.9 -17 103 C-20.75635569 102.24872886 -22.83210307 101.75994274 -26 100 C-25.4217568 96.60240874 -24.53531384 93.81025754 -23.07568359 90.69897461 C-20.20357922 83.6671395 -19.60336325 76.29913109 -18.7890625 68.81640625 C-18.61152371 67.26836503 -18.43307131 65.72042834 -18.25375366 64.17259216 C-17.88362332 60.95039515 -17.52334044 57.72729888 -17.17041016 54.50317383 C-16.71727593 50.36957814 -16.24100696 46.23903615 -15.75769997 42.10887241 C-15.38712718 38.92286521 -15.02777983 35.73567115 -14.67194748 32.54798698 C-14.50055994 31.02336598 -14.32587945 29.49911142 -14.14784622 27.97525215 C-13.90187245 25.8537926 -13.6708427 23.73122857 -13.44384766 21.60766602 C-13.24210434 19.79758812 -13.24210434 19.79758812 -13.0362854 17.95094299 C-12.71977606 14.80837331 -12.71977606 14.80837331 -15 12 C-15 11.01 -15 10.02 -15 9 C-11.27034861 6.96564469 -9.33094958 6 -5 6 C-3.45039499 4.71881303 -3.45039499 4.71881303 -2.25 3 C-1.5075 2.01 -0.765 1.02 0 0 Z M-5 8 C-4.34 9.32 -3.68 10.64 -3 12 C-3 10.68 -3 9.36 -3 8 C-3.66 8 -4.32 8 -5 8 Z " fill="#000000" transform="translate(479,465)"/>
<path d="M0 0 C3.81583379 0.65179251 6.02881405 1.46898975 9 4 C8.67 6.31 8.34 8.62 8 11 C8.99 9.35 9.98 7.7 11 6 C14.82097239 6.53069061 17.06171403 7.49701566 20 10 C19.65291992 10.88719727 19.30583984 11.77439453 18.94824219 12.68847656 C17.33201587 18.4008097 18.27644848 24.15694272 18.828125 29.984375 C18.93719177 31.23575256 19.04625854 32.48713013 19.15863037 33.77642822 C19.39152136 36.41974305 19.62915984 39.0620621 19.87548828 41.70410156 C20.24976659 45.72065222 20.59995025 49.739008 20.94921875 53.7578125 C21.1785574 56.33343421 21.40899086 58.90895872 21.640625 61.484375 C21.74594543 62.67432068 21.85126587 63.86426636 21.95977783 65.090271 C23.09923335 78.02925007 23.09923335 78.02925007 26.6875 90.4375 C28 94 28 94 28.046875 96.01953125 C26.29864966 99.32680829 22.90665287 100.0395587 19.5625 101.25 C18.52125977 101.6521875 18.52125977 101.6521875 17.45898438 102.0625 C12.35327647 104 12.35327647 104 10 104 C-16.50491213 37.58935633 -16.50491213 37.58935633 -6 11 C-4.16922104 7.22198032 -2.18137223 3.58620418 0 0 Z " fill="#000000" transform="translate(398,459)"/>
<path d="M0 0 C2.97 0.99 5.94 1.98 9 3 C8.62688668 5.76103857 8.1844721 8.42993601 7.32536316 11.08479309 C4.35095714 20.34675214 4.12071724 29.74852298 3.61328125 39.38671875 C3.50643058 41.25760834 3.39859973 43.12844218 3.2898407 44.9992218 C3.00805835 49.89619029 2.74074873 54.79384728 2.47619629 59.69177246 C2.25808786 63.68327052 2.02946611 67.67413399 1.80032063 71.66501141 C1.52600321 76.44704317 1.25652768 81.22934302 0.98828125 86.01171875 C0.9374621 86.91493048 0.88664295 87.8181422 0.83428383 88.74872398 C0.69073578 91.32022338 0.55047626 93.89187959 0.41137695 96.46362305 C0.3693364 97.21239212 0.32729584 97.96116119 0.28398132 98.73262024 C0.17301103 100.82145016 0.08057 102.90978881 0 105 C-0.0314744 105.72660135 -0.0629488 106.45320271 -0.09537697 107.20182228 C-0.19456768 111.04547166 -0.18779889 112.71830167 2 116 C1.875 118.0625 1.875 118.0625 1 120 C-1.31059 121.7329425 -2.58960465 122.02265589 -5.4765625 121.86328125 C-8 121 -8 121 -9.4765625 118.8046875 C-24.15940247 81.34846309 -15.08621009 36.08533036 0 0 Z " fill="#000000" transform="translate(238,10)"/>
<path d="M0 0 C6.92820061 22.75031812 6.92820061 22.75031812 9.375 34.375 C9.53000977 35.10307861 9.68501953 35.83115723 9.84472656 36.58129883 C11.61497022 45.37505476 12.15651376 54.16208242 12.16796875 63.1171875 C12.17129715 64.05442657 12.17462555 64.99166565 12.17805481 65.95730591 C12.1830854 67.93214432 12.18546434 69.90699112 12.18530273 71.88183594 C12.18746905 74.83283362 12.20561091 77.78344418 12.22460938 80.734375 C12.26042485 93.27766294 11.50632235 105.54830422 10 118 C6.7 117.67 3.4 117.34 0 117 C0.1026416 115.4519165 0.2052832 113.90383301 0.31103516 112.30883789 C1.314514 94.63149367 0.43134609 77.49866472 -1.21337891 59.89916992 C-1.56256875 56.159886 -1.88068427 52.41866947 -2.19118118 48.6760006 C-3.95320918 27.57186958 -3.95320918 27.57186958 -9.02490234 7.05493164 C-10 4 -10 4 -10 1 C-6.14742381 -0.87125129 -4.12048864 -0.99030231 0 0 Z " fill="#000000" transform="translate(265,19)"/>
<path d="M0 0 C3.58899398 14.03974501 7.08070874 28.055805 9.375 42.375 C9.60751465 43.80380493 9.60751465 43.80380493 9.84472656 45.26147461 C12.12466839 60.28234422 12.13278925 75.28817734 12.0625 90.4375 C12.05747031 92.34439985 12.05291003 94.25130101 12.04882812 96.15820312 C12.03794957 100.77216822 12.02076764 105.38606925 12 110 C7.545 110.495 7.545 110.495 3 111 C1.95541988 106.70903382 1.84839224 102.53108183 1.82421875 98.140625 C1.80432821 96.55027768 1.78319695 94.95994552 1.76098633 93.36962891 C1.74983795 92.53538391 1.73868958 91.70113892 1.72720337 90.84161377 C1.32665253 64.69589667 -0.99562983 39.44478963 -7.73046875 14.08984375 C-8.8792373 9.72517458 -9.56105882 5.48989232 -10 1 C-6.14742381 -0.87125129 -4.12048864 -0.99030231 0 0 Z " fill="#000000" transform="translate(279,14)"/>
<path d="M0 0 C2.97 0.99 5.94 1.98 9 3 C8.45879673 6.93437808 7.55711697 10.54378218 6.27058411 14.29956055 C3.04736595 23.75159289 1.49260146 33.11069462 0.3125 43 C0.20949585 43.82162628 0.1064917 44.64325256 0.00036621 45.48977661 C-1.88941652 60.64125308 -2.85605846 75.80026256 -3.45581055 91.05273438 C-3.48762924 91.86150528 -3.51944794 92.67027618 -3.55223083 93.5035553 C-3.60881902 94.9992007 -3.66156117 96.49499964 -3.70936584 97.99095154 C-3.87757401 102.71871069 -4.35942646 107.31850779 -5 112 C-11.625 112.125 -11.625 112.125 -15 111 C-11.82603945 28.57959534 -11.82603945 28.57959534 0 0 Z " fill="#000000" transform="translate(224,6)"/>
</svg>
