<?xml version="1.0" encoding="UTF-8"?>
<svg version="1.1" xmlns="http://www.w3.org/2000/svg" width="800" height="800">
<path d="M0 0 C1.98 0 3.96 0 6 0 C6 24.75 6 49.5 6 75 C4.02 75 2.04 75 0 75 C0 50.25 0 25.5 0 0 Z " fill="#000000" transform="translate(495,337)"/>
<path d="M0 0 C1.98 0 3.96 0 6 0 C6 24.75 6 49.5 6 75 C4.02 75 2.04 75 0 75 C0 50.25 0 25.5 0 0 Z " fill="#000000" transform="translate(484,336)"/>
<path d="M0 0 C1.98 0 3.96 0 6 0 C6 24.42 6 48.84 6 74 C4.02 74 2.04 74 0 74 C0 49.58 0 25.16 0 0 Z " fill="#000000" transform="translate(503,339)"/>
<path d="M0 0 C1.98 0 3.96 0 6 0 C6 24.42 6 48.84 6 74 C4.02 74 2.04 74 0 74 C0 49.58 0 25.16 0 0 Z " fill="#000000" transform="translate(503,192)"/>
<path d="M0 0 C1.98 0 3.96 0 6 0 C6 24.42 6 48.84 6 74 C4.02 74 2.04 74 0 74 C0 49.58 0 25.16 0 0 Z " fill="#000000" transform="translate(495,192)"/>
<path d="M0 0 C1.98 0 3.96 0 6 0 C6 24.42 6 48.84 6 74 C4.02 74 2.04 74 0 74 C0 49.58 0 25.16 0 0 Z " fill="#000000" transform="translate(485,192)"/>
</svg>
