<?xml version="1.0" encoding="UTF-8"?>
<svg version="1.1" xmlns="http://www.w3.org/2000/svg" width="800" height="800">
<path d="M0 0 C38.28 0 76.56 0 116 0 C116 1.98 116 3.96 116 6 C77.72 6 39.44 6 0 6 C0 4.02 0 2.04 0 0 Z " fill="#000000" transform="translate(276,508)"/>
<path d="M0 0 C38.28 0 76.56 0 116 0 C116 1.98 116 3.96 116 6 C77.72 6 39.44 6 0 6 C0 4.02 0 2.04 0 0 Z " fill="#000000" transform="translate(276,499)"/>
<path d="M0 0 C38.28 0 76.56 0 116 0 C116 1.98 116 3.96 116 6 C77.72 6 39.44 6 0 6 C0 4.02 0 2.04 0 0 Z " fill="#000000" transform="translate(276,490)"/>
<path d="M0 0 C34.65 0 69.3 0 105 0 C105 1.98 105 3.96 105 6 C70.35 6 35.7 6 0 6 C0 4.02 0 2.04 0 0 Z " fill="#000000" transform="translate(491,515)"/>
<path d="M0 0 C34.65 0 69.3 0 105 0 C105 1.98 105 3.96 105 6 C70.35 6 35.7 6 0 6 C0 4.02 0 2.04 0 0 Z " fill="#000000" transform="translate(491,507)"/>
<path d="M0 0 C34.65 0 69.3 0 105 0 C105 1.98 105 3.96 105 6 C70.35 6 35.7 6 0 6 C0 4.02 0 2.04 0 0 Z " fill="#000000" transform="translate(491,497)"/>
<path d="M0 0 C16.17 0 32.34 0 49 0 C49 1.98 49 3.96 49 6 C32.83 6 16.66 6 0 6 C0 4.02 0 2.04 0 0 Z " fill="#000000" transform="translate(642,516)"/>
<path d="M0 0 C16.17 0 32.34 0 49 0 C49 1.98 49 3.96 49 6 C32.83 6 16.66 6 0 6 C0 4.02 0 2.04 0 0 Z " fill="#000000" transform="translate(642,507)"/>
<path d="M0 0 C16.17 0 32.34 0 49 0 C49 1.98 49 3.96 49 6 C32.83 6 16.66 6 0 6 C0 4.02 0 2.04 0 0 Z " fill="#000000" transform="translate(642,498)"/>
<path d="M0 0 C13.53 0 27.06 0 41 0 C41 1.98 41 3.96 41 6 C27.47 6 13.94 6 0 6 C0 4.02 0 2.04 0 0 Z " fill="#000000" transform="translate(190,508)"/>
<path d="M0 0 C13.53 0 27.06 0 41 0 C41 1.98 41 3.96 41 6 C27.47 6 13.94 6 0 6 C0 4.02 0 2.04 0 0 Z " fill="#000000" transform="translate(190,499)"/>
<path d="M0 0 C13.53 0 27.06 0 41 0 C41 1.98 41 3.96 41 6 C27.47 6 13.94 6 0 6 C0 4.02 0 2.04 0 0 Z " fill="#000000" transform="translate(190,490)"/>
</svg>
