<?xml version="1.0" encoding="UTF-8"?>
<svg version="1.1" xmlns="http://www.w3.org/2000/svg" width="800" height="800">
<path d="M0 0 C6.43187778 -0.36882096 12.09814874 0.97861233 18.3125 2.5625 C20.11521362 3.01943237 20.11521362 3.01943237 21.9543457 3.4855957 C48.54387126 10.34638293 74.73379718 18.81719644 100.9609375 26.9296875 C102.33448316 27.35444145 103.70803359 27.77917997 105.08158875 28.2039032 C105.76486142 28.41518262 106.4481341 28.62646204 107.15211201 28.84414387 C109.92772917 29.70235347 112.70339117 30.56041796 115.47907639 31.41840744 C116.86635075 31.84728474 118.25359093 32.27627261 119.64079666 32.70537186 C145.29813483 40.6411219 171.05456703 48.17800261 196.91851807 55.4151001 C199.94861777 56.26656318 202.97450417 57.13233156 206 58 C206 58.66 206 59.32 206 60 C204.49925214 61.13934327 202.94555927 62.2089953 201.375 63.25 C197.68719023 65.80966231 194.57802066 68.33437473 191.5390625 71.640625 C190.9507666 72.27581055 190.3624707 72.91099609 189.75634766 73.56542969 C188.60828646 74.82998861 187.48407769 76.11673113 186.38818359 77.42675781 C183.90984027 80.13779208 182.15970062 81.79192914 178.47583008 82.45288086 C175.60213011 82.49773095 172.85601947 82.31635151 170 82 C169.16903809 81.91572754 168.33807617 81.83145508 167.48193359 81.74462891 C164.86717404 81.42366317 162.28363459 81.00965567 159.6875 80.5625 C158.68605957 80.39419678 157.68461914 80.22589355 156.65283203 80.05249023 C145.95937523 78.15490561 135.44369527 75.53553952 124.89920044 72.95709229 C114.1781129 70.3425274 103.54007554 68.1041579 92.625 66.4375 C61.09305887 61.54978326 32.52953675 52.41979874 4.39233398 37.37109375 C3.74171494 37.02525742 3.09109589 36.67942108 2.42076111 36.32310486 C0.63743101 35.37297764 -1.14139618 34.41441263 -2.91992188 33.45532227 C-5.69173469 32.14565389 -7.98201091 31.42233531 -11 31 C-11.36454134 24.72568278 -10.43065112 20.57780879 -7.75 14.9375 C-7.44964844 14.26912109 -7.14929688 13.60074219 -6.83984375 12.91210938 C-4.80350742 8.4538326 -2.48299346 4.22438488 0 0 Z " fill="#000000" transform="translate(462,535)"/>
<path d="M0 0 C0.98163422 1.93625098 1.96022454 3.87404539 2.9375 5.8125 C3.48277344 6.89144531 4.02804687 7.97039063 4.58984375 9.08203125 C6.62100067 13.28500693 7.18241857 16.42754034 7.25 21.0625 C7.28867187 22.65771484 7.28867187 22.65771484 7.328125 24.28515625 C7.16570312 25.62900391 7.16570312 25.62900391 7 27 C3.8710594 29.0859604 1.61008212 29.73743425 -2.0078125 30.671875 C-10.34801905 32.98752896 -18.30728902 36.07997599 -26.35205078 39.25588989 C-41.74350036 45.32053657 -57.14781994 51.23496936 -73 56 C-73.95181152 56.28697754 -74.90362305 56.57395508 -75.88427734 56.86962891 C-87.04587363 60.16749966 -97.75775443 62.41762106 -109.36791992 63.25024414 C-115.28332741 63.71447151 -120.78346719 64.73085061 -126.5 66.3125 C-127.27843262 66.52680664 -128.05686523 66.74111328 -128.85888672 66.96191406 C-132.04765312 67.85495279 -135.22894408 68.76921628 -138.40136719 69.71875 C-152.52053667 73.88710489 -174.13989798 79.53156713 -188.08544922 73.02734375 C-190.68996176 71.04750042 -192.31897259 68.69955543 -194.08203125 65.96875 C-197.75711305 60.28023234 -203.99553739 56.69546438 -209.82421875 53.40625 C-210.54222656 52.9421875 -211.26023438 52.478125 -212 52 C-212 51.34 -212 50.68 -212 50 C-211.11429321 49.83733643 -211.11429321 49.83733643 -210.21069336 49.67138672 C-171.79221881 42.46367291 -134.05091904 31.67780459 -96.34033203 21.50042725 C-78.66268157 16.73322797 -60.94875291 12.13322636 -43.1875 7.6875 C-42.08499908 7.41042206 -40.98249817 7.13334412 -39.84658813 6.84786987 C-36.725625 6.06475551 -33.60336022 5.28710355 -30.48046875 4.51171875 C-29.1263942 4.17216156 -29.1263942 4.17216156 -27.7449646 3.82574463 C-18.46644173 1.53980875 -9.58760493 -0.3143477 0 0 Z " fill="#000000" transform="translate(420,533)"/>
<path d="M0 0 C9.31127404 3.11222666 16.37626803 9.24168528 23.53857422 15.69433594 C25.59185257 17.52877172 27.7074951 19.28791033 29.8125 21.0625 C31.70703125 22.66015625 31.70703125 22.66015625 33 24 C33 24.66 33 25.32 33 26 C10.60049391 30.96151641 -11.83656225 35.71063253 -34.3125 40.3125 C-35.90870461 40.63963363 -37.50490615 40.96678226 -39.10110474 41.29394531 C-112.93212842 56.42079317 -112.93212842 56.42079317 -146.5625 62.125 C-147.44058319 62.27606201 -148.31866638 62.42712402 -149.22335815 62.58276367 C-172.11894289 66.4981497 -172.11894289 66.4981497 -178.125 63.375 C-181.17158613 57.89114497 -180.37353105 52.1342099 -180 46 C-155.27247441 33.7134634 -130.36818136 24.94685796 -104 17 C-102.84153564 16.63986816 -101.68307129 16.27973633 -100.48950195 15.90869141 C-96.98559323 14.99624837 -93.75993904 14.5846904 -90.15234375 14.32421875 C-88.83967529 14.22125488 -87.52700684 14.11829102 -86.17456055 14.01220703 C-85.48437836 13.95985901 -84.79419617 13.90751099 -84.08309937 13.85357666 C-58.1994684 11.85009593 -24.17442214 -3.63449933 0 0 Z " fill="#000000" transform="translate(642,426)"/>
<path d="M0 0 C7.94724354 2.48424044 16.00147014 4.38098326 24.11547852 6.23608398 C26.62893299 6.8119376 29.13968458 7.39862202 31.65039062 7.98632812 C39.80821786 9.87706284 47.97625864 11.61699469 56.23046875 13.03515625 C56.9496196 13.16173111 57.66877045 13.28830597 58.40971375 13.41871643 C63.00055993 14.17224322 67.30984077 14.34111404 71.9609375 14.19140625 C95.06545095 13.7757695 118.34060419 24.81248885 139.3359375 33.37890625 C140.43035156 33.82203156 140.43035156 33.82203156 141.546875 34.27410889 C163.07170955 43.0240367 163.07170955 43.0240367 169.4609375 50.25390625 C170.0859375 53.19140625 170.0859375 53.19140625 169.4609375 56.25390625 C166.96497266 59.35699767 165.34769247 60.97010713 161.38012695 61.56689453 C151.75950254 61.59588105 142.41325971 59.87065166 132.9609375 58.25390625 C131.96441162 58.08595551 130.96788574 57.91800476 129.94116211 57.7449646 C72.20838019 47.98336962 14.80037452 36.07818667 -42.5390625 24.25390625 C-42.5390625 23.26390625 -42.5390625 22.27390625 -42.5390625 21.25390625 C-40.51953125 19.34375 -40.51953125 19.34375 -37.7265625 17.19140625 C-33.57827894 13.92823203 -29.68922235 10.5748209 -25.8515625 6.94140625 C-17.53244791 -0.66768434 -11.10156386 -3.63933821 0 0 Z " fill="#000000" transform="translate(250.5390625,418.74609375)"/>
<path d="M0 0 C4.93618828 6.03311901 5.34592786 14.20634462 5.3125 21.6875 C5.32861328 22.42033203 5.34472656 23.15316406 5.36132812 23.90820312 C5.36540005 28.42397298 5.02771684 31.55734981 2 35 C-0.46875 35.96875 -0.46875 35.96875 -3.5 36.5 C-5.23056641 36.84611328 -5.23056641 36.84611328 -6.99609375 37.19921875 C-7.63272949 37.32345215 -8.26936523 37.44768555 -8.92529297 37.57568359 C-27.79055026 40.83323211 -27.79055026 40.83323211 -43.37109375 50.6640625 C-46.03816752 52.85144674 -48.70728944 52.31939422 -52.0625 52.25 C-53.31160156 52.23453125 -54.56070313 52.2190625 -55.84765625 52.203125 C-59 52 -59 52 -61 51 C-61.7829818 48.34329296 -62.3443005 45.66443523 -62.92578125 42.95703125 C-65.35226677 36.27757838 -69.92056319 33.00555689 -75.9375 29.8125 C-76.53240234 29.48314453 -77.12730469 29.15378906 -77.74023438 28.81445312 C-81.44469427 26.77801233 -85.2090897 24.86941073 -89 23 C-89 22.34 -89 21.68 -89 21 C-78.13747195 18.10155034 -67.27191757 15.2147675 -56.40234089 12.34285641 C-51.35530538 11.00895906 -46.30940224 9.6710597 -41.26586914 8.32397461 C-36.39894388 7.02421804 -31.52933255 5.73502684 -26.65767479 4.45312691 C-24.79913881 3.96209878 -22.94160377 3.46726588 -21.0851078 2.96858025 C-18.48547072 2.27096892 -15.88260988 1.5869468 -13.27856445 0.90600586 C-12.5110788 0.69669434 -11.74359314 0.48738281 -10.95285034 0.27172852 C-7.00246811 -0.74532161 -3.90416094 -1.39863699 0 0 Z " fill="#000000" transform="translate(241,143)"/>
<path d="M0 0 C5.30884894 0.56862544 10.21011781 1.46902811 15.36230469 2.93359375 C16.04955124 3.1272049 16.73679779 3.32081604 17.44487 3.52029419 C19.68879617 4.15389068 21.93030086 4.79563711 24.171875 5.4375 C25.74254689 5.88260705 27.31337066 6.32717844 28.88433838 6.77124023 C33.0007104 7.93625965 37.11509702 9.10813979 41.22906494 10.28161621 C46.23401975 11.70786414 51.24128223 13.1259842 56.24818802 14.54536438 C60.1416712 15.64927927 64.03480861 16.75436776 67.92694092 17.86303711 C68.9996096 18.16828812 68.9996096 18.16828812 70.09394836 18.47970581 C72.02188142 19.02843982 73.94963751 19.57779545 75.87738037 20.12719727 C78.24539152 20.78907955 80.6101654 21.42367124 83 22 C83 25 83 25 81.5390625 26.60546875 C80.90742188 27.12753906 80.27578125 27.64960938 79.625 28.1875 C78.99851562 28.71730469 78.37203125 29.24710938 77.7265625 29.79296875 C76 31 76 31 74 31 C73.73960937 31.55945313 73.47921875 32.11890625 73.2109375 32.6953125 C71.86616615 35.25471604 70.30388694 37.52162574 68.625 39.875 C66.60482648 42.71665487 64.61986405 45.55750076 62.75 48.5 C61 51 61 51 58 53 C55.08203125 53.1953125 55.08203125 53.1953125 51.8125 53.125 C50.72582031 53.10695312 49.63914062 53.08890625 48.51953125 53.0703125 C47.68808594 53.04710937 46.85664063 53.02390625 46 53 C45.67 52.01 45.34 51.02 45 50 C42.78694952 48.86194019 42.78694952 48.86194019 40 48 C38.96230469 47.63261719 37.92460937 47.26523438 36.85546875 46.88671875 C27.34603165 43.77766956 17.86174907 41.61856932 7.98706055 39.96362305 C0.64704777 38.60290448 0.64704777 38.60290448 -2.17578125 35.97265625 C-3.38858905 31.59850112 -3.44211874 27.45802731 -3.375 22.9375 C-3.36919922 22.00462158 -3.36339844 21.07174316 -3.35742188 20.1105957 C-3.22486267 13.03770281 -2.33510231 6.71341914 0 0 Z " fill="#000000" transform="translate(258,148)"/>
<path d="M0 0 C9.38774305 3.21159631 16.84538705 9.46903946 24.39306641 15.68554688 C26.6874432 17.5623206 29.02918985 19.37566547 31.375 21.1875 C32.08398438 21.73792969 32.79296875 22.28835937 33.5234375 22.85546875 C34.01070313 23.23316406 34.49796875 23.61085938 35 24 C32.3245033 27.55955574 28.73951884 28.03641336 24.61035156 28.90112305 C23.86037903 29.06737183 23.11040649 29.23362061 22.33770752 29.40490723 C19.85762446 29.95158114 17.37437331 30.48196771 14.890625 31.01171875 C13.16273537 31.38780667 11.4350153 31.76467439 9.7074585 32.14228821 C6.08412617 32.93174504 2.45923956 33.71347457 -1.16699219 34.48950195 C-5.80437536 35.48229899 -10.43803591 36.49132431 -15.07070541 37.50586224 C-18.64008126 38.2861342 -22.21101157 39.05908207 -25.78247833 39.82972145 C-27.49084286 40.19898516 -29.19879158 40.57017824 -30.90630341 40.9433651 C-33.30030896 41.46514689 -35.69617048 41.97736075 -38.09277344 42.48706055 C-38.79225098 42.64130997 -39.49172852 42.79555939 -40.21240234 42.95448303 C-44.53882672 43.86153456 -48.58530009 44.13888102 -53 44 C-57.80894967 36.78657549 -60.21634636 27.68818832 -59 19 C-55.8503182 14.22117245 -52.02071576 13.03435074 -46.71484375 11.74609375 C-43.66937418 11.13443793 -40.62564038 10.57126755 -37.56640625 10.03515625 C-36.59179443 9.8637915 -35.61718262 9.69242676 -34.61303711 9.51586914 C-32.64583144 9.17624126 -30.67656911 8.84828595 -28.70532227 8.53295898 C-22.35246794 7.46220325 -18.35038872 5.91310709 -13.3125 1.8125 C-8.67417186 -0.72545313 -5.17575218 -0.9310489 0 0 Z " fill="#000000" transform="translate(311,3)"/>
<path d="M0 0 C1.81661133 0.35300171 1.81661133 0.35300171 3.66992188 0.71313477 C12.18484212 2.53285562 21.78811965 5.03811965 28.125 11.375 C28.20703125 14.640625 28.20703125 14.640625 27.9375 18.625 C27.86144531 19.92953125 27.78539062 21.2340625 27.70703125 22.578125 C26.96767245 27.40132468 25.59224989 30.90775011 22.125 34.375 C12.65551653 34.83118386 2.68058571 31.85825138 -6.57421875 29.99609375 C-8.26233757 29.66072389 -9.95055656 29.32585789 -11.63887024 28.99147034 C-16.04726349 28.11695622 -20.45427686 27.2356767 -24.86102295 26.35290527 C-29.3720185 25.45052271 -33.88430625 24.55465013 -38.39648438 23.65820312 C-47.22392153 21.90344778 -56.04991242 20.14153118 -64.875 18.375 C-64.875 17.055 -64.875 15.735 -64.875 14.375 C-64.00488281 13.983125 -63.13476562 13.59125 -62.23828125 13.1875 C-58.67828494 11.26898863 -56.06369337 9.07486874 -53.0625 6.375 C-48.31888425 2.25381287 -44.07411864 -0.39945447 -37.875 -1.625 C-37.12089844 -1.8003125 -36.36679688 -1.975625 -35.58984375 -2.15625 C-23.5850441 -4.22902116 -11.81812214 -2.3728056 0 0 Z " fill="#000000" transform="translate(217.875,2.625)"/>
</svg>
