<?xml version="1.0" encoding="UTF-8"?>
<svg version="1.1" xmlns="http://www.w3.org/2000/svg" width="800" height="800">
<path d="M0 0 C0.80103149 0.00202423 1.60206299 0.00404846 2.42736816 0.00613403 C3.24483521 0.00517731 4.06230225 0.00422058 4.90454102 0.00323486 C6.63627194 0.00255308 8.3680054 0.00440724 10.09973145 0.00857544 C12.75978298 0.01392374 15.41966566 0.00863041 18.07971191 0.00222778 C19.75809771 0.00288857 21.43648339 0.00416973 23.11486816 0.00613403 C23.91589966 0.0041098 24.71693115 0.00208557 25.54223633 0 C31.15616738 0.02399575 31.15616738 0.02399575 32.27111816 1.13894653 C32.32252562 2.66803276 32.3061939 4.1994414 32.26330566 5.72879028 C31.72990191 33.37165528 34.75064298 60.20248167 39.5899353 87.36901855 C39.77630051 88.41528915 39.77630051 88.41528915 39.96643066 89.48269653 C40.08672638 90.15660431 40.20702209 90.83051208 40.33096313 91.52484131 C41.24072828 96.72097041 41.84689923 101.88277053 42.27111816 107.13894653 C31.29678779 112.0164267 22.46487563 115.37400557 10.27111816 114.13894653 C-1.2524189 89.69074755 -6.91592405 65.49032312 -6.86169434 38.38113403 C-6.86265106 37.31146393 -6.86360779 36.24179382 -6.86459351 35.13970947 C-6.86526865 32.90280091 -6.86346129 30.6658903 -6.85925293 28.4289856 C-6.85384183 24.9885122 -6.85924745 21.54816621 -6.86560059 18.10769653 C-6.86494072 15.92800874 -6.86366147 13.74832103 -6.86169434 11.56863403 C-6.86371857 10.53648773 -6.8657428 9.50434143 -6.86782837 8.44091797 C-6.86467621 7.49548126 -6.86152405 6.55004456 -6.85827637 5.57595825 C-6.85748077 4.74087738 -6.85668518 3.90579651 -6.85586548 3.04541016 C-6.5783484 -1.12108087 -3.45853483 0.01478289 0 0 Z " fill="#000000" transform="translate(204.7288818359375,68.86105346679688)"/>
<path d="M0 0 C5.53588533 -0.02464775 11.071739 -0.04283496 16.60766602 -0.05493164 C18.4924373 -0.05997244 20.37720465 -0.06680498 22.26196289 -0.07543945 C24.96501636 -0.08751617 27.66801831 -0.09323068 30.37109375 -0.09765625 C31.21900986 -0.10281754 32.06692596 -0.10797882 32.9405365 -0.11329651 C34.96071068 -0.11349195 36.98077934 -0.06206211 39 0 C41.02943339 2.02943339 40.16405076 6.20958865 40.16796875 8.99609375 C40.17296135 10.22840477 40.17296135 10.22840477 40.17805481 11.48561096 C40.18313673 13.24015747 40.18546275 14.99471372 40.18530273 16.74926758 C40.18744281 19.36752761 40.20545133 21.98533299 40.22460938 24.60351562 C40.32484765 54.45291584 34.32079622 81.2907893 21 108 C9.3162466 108.49310096 0.22773388 108.10988789 -10.1875 102.1875 C-12 100 -12 100 -12.5 96.6875 C-12.04690395 93.34591662 -11.15375983 91.02990623 -9.80664062 87.98803711 C1.31501057 60.57774484 -0.34674264 28.95396839 0 0 Z " fill="#000000" transform="translate(262,80)"/>
<path d="M0 0 C13.2 0 26.4 0 40 0 C40.53625 4.104375 41.0725 8.20875 41.625 12.4375 C43.65030824 26.69861717 46.45007782 40.01314102 54.99609375 51.921875 C56 54 56 54 55.96484375 56.484375 C53.2959422 63.44296852 44.57809352 67.9838802 38.125 71 C31.87648786 73.68592761 24.77331193 75.45783204 18 74 C15.35004062 71.84523505 14.31214498 69.10061656 13 66 C12.52046875 64.96617187 12.0409375 63.93234375 11.546875 62.8671875 C2.83812911 42.85466538 0 21.68154906 0 0 Z " fill="#000000" transform="translate(373,498)"/>
<path d="M0 0 C13.2 0 26.4 0 40 0 C40 23.44734106 36.14269873 46.53266761 24 67 C21.49571037 69.50428963 20.59612315 69.32469387 17.125 69.375 C5.26857336 69.12702245 -5.9133993 63.78376477 -14.6875 55.9375 C-17 53 -17 53 -16.81640625 50.6015625 C-15.95161016 47.84580078 -14.8324968 45.8479526 -13.25 43.4375 C-4.81731902 29.76725458 -2.41971981 15.72817875 0 0 Z " fill="#000000" transform="translate(467,511)"/>
<path d="M0 0 C1.09326172 1.57202148 1.09326172 1.57202148 1.9296875 3.62109375 C2.24719971 4.38260742 2.56471191 5.14412109 2.8918457 5.92871094 C3.21628662 6.75661133 3.54072754 7.58451172 3.875 8.4375 C4.39163208 9.71608887 4.39163208 9.71608887 4.91870117 11.02050781 C18.84779999 46.00942317 18.84779999 46.00942317 17 62 C16 63 16 63 12.39819336 63.11352539 C10.79540144 63.11336625 9.1926044 63.10767063 7.58984375 63.09765625 C6.74780899 63.0962413 5.90577423 63.09482635 5.03822327 63.09336853 C2.33794665 63.08775263 -0.36224828 63.07519748 -3.0625 63.0625 C-4.88867068 63.05748705 -6.71484266 63.05292379 -8.54101562 63.04882812 C-13.02737542 63.03777804 -17.51367384 63.02050279 -22 63 C-23.24017132 60.51965736 -22.93537361 59.19703895 -22.75 56.4375 C-22.67147897 48.91911154 -25.08451572 42.30532996 -27.31982422 35.21826172 C-28.42016432 31.62971537 -29.38244263 28.01087345 -30.3125 24.375 C-30.80169922 22.49941406 -30.80169922 22.49941406 -31.30078125 20.5859375 C-32.03154781 16.83820731 -32.48255074 13.79726841 -32 10 C-28.03166805 5.08973431 -21.27175359 3.90260376 -15.4375 2.1875 C-14.39658203 1.86330078 -13.35566406 1.53910156 -12.28320312 1.20507812 C-3.30936622 -1.48995843 -3.30936622 -1.48995843 0 0 Z " fill="#000000" transform="translate(284,11)"/>
<path d="M0 0 C5.47508595 0.8144756 10.81396992 2.06760962 16.1875 3.375 C17.08919922 3.58382813 17.99089844 3.79265625 18.91992188 4.0078125 C20.21833008 4.32492187 20.21833008 4.32492187 21.54296875 4.6484375 C22.32696045 4.83583496 23.11095215 5.02323242 23.91870117 5.21630859 C26.27972915 6.1053291 27.43138403 7.03938341 29 9 C30.80796402 18.67505068 27.42331619 28.70287552 25 38 C23.0734331 45.55310955 21.73988778 52.19663349 22 60 C20.15723491 61.84276509 17.57036241 61.12874411 15.11865234 61.13894653 C14.29574707 61.1369223 13.4728418 61.13489807 12.625 61.1328125 C11.78533691 61.13376923 10.94567383 61.13472595 10.08056641 61.13571167 C8.30175705 61.13639348 6.52294523 61.13453917 4.74414062 61.13037109 C2.01166224 61.12502283 -0.72065176 61.13031605 -3.453125 61.13671875 C-5.1770837 61.13605797 -6.90104229 61.13477681 -8.625 61.1328125 C-9.44790527 61.13483673 -10.27081055 61.13686096 -11.11865234 61.13894653 C-16.88504946 61.11495054 -16.88504946 61.11495054 -18 60 C-19.83788772 39.41565758 -8.21641604 18.17709917 0 0 Z " fill="#000000" transform="translate(216,3)"/>
<path d="M0 0 C5.81606203 6.2218338 6.19330436 10.35565952 6.1875 18.4375 C6.18814453 19.35877686 6.18878906 20.28005371 6.18945312 21.22924805 C6.11701892 30.91320773 5.10709978 40.38207065 4 50 C-9.2 50 -22.4 50 -36 50 C-36.33 46.37 -36.66 42.74 -37 39 C-37.185625 37.865625 -37.37125 36.73125 -37.5625 35.5625 C-37.706875 34.386875 -37.85125 33.21125 -38 32 C-38.12503906 31.04867187 -38.25007813 30.09734375 -38.37890625 29.1171875 C-38.6298997 25.87419272 -38.67623381 23.18541716 -38 20 C-35.45896438 17.14732794 -32.36288977 15.73406835 -29 14 C-27.37944274 12.87746765 -25.77533572 11.73085886 -24.1875 10.5625 C-5.6419965 -2.4891161 -5.6419965 -2.4891161 0 0 Z " fill="#000000" transform="translate(502,453)"/>
<path d="M0 0 C2.06392469 1.11091785 4.08220749 2.30856013 6.0625 3.5625 C6.62251709 3.9138501 7.18253418 4.2652002 7.75952148 4.62719727 C12.73749316 7.77151014 17.60304346 11.07890802 22.44140625 14.43359375 C24.72423921 15.83117546 26.38742894 16.56354695 29 17 C29.02783516 19.20825618 29.04675802 21.4166245 29.0625 23.625 C29.07410156 24.85476563 29.08570313 26.08453125 29.09765625 27.3515625 C28.96686778 33.57709344 28.44364858 39.78891981 28 46 C14.14 46 0.28 46 -14 46 C-14.0825 40.575625 -14.165 35.15125 -14.25 29.5625 C-14.28641602 27.86939697 -14.32283203 26.17629395 -14.36035156 24.43188477 C-14.47681494 15.15632683 -14.14340031 7.46212341 -7.5625 0.375 C-4.34542117 -1.35123742 -3.45042363 -1.02620358 0 0 Z " fill="#000000" transform="translate(386,445)"/>
</svg>
