<?xml version="1.0" encoding="UTF-8"?>
<svg version="1.1" xmlns="http://www.w3.org/2000/svg" width="800" height="800">
<path d="M0 0 C28.38911036 -0.06999086 56.77820784 -0.12293942 85.16738701 -0.15543652 C98.34811151 -0.17092458 111.5287825 -0.19205105 124.70947266 -0.22631836 C136.19386171 -0.25616144 147.67821203 -0.27556088 159.16263878 -0.28226548 C165.24708419 -0.28618639 171.33141873 -0.29544114 177.4158287 -0.31719017 C183.13668397 -0.33747496 188.85738215 -0.34385009 194.57826996 -0.33932304 C196.68343839 -0.34015185 198.78861179 -0.34616491 200.89374924 -0.35761642 C203.75715174 -0.37243533 206.61995291 -0.36899264 209.48336792 -0.36076355 C210.32576897 -0.36950207 211.16817001 -0.3782406 212.03609836 -0.38724393 C214.34931755 -0.36914349 214.34931755 -0.36914349 218 0 C220.31880422 3.47820633 220.81807149 6.1583019 221.625 10.25 C221.88539063 11.53390625 222.14578125 12.8178125 222.4140625 14.140625 C223 18 223 18 223 25 C148.42 25 73.84 25 -3 25 C-1.83928571 7.58928571 -1.83928571 7.58928571 0 0 Z " fill="#000000" transform="translate(198,506)"/>
<path d="M0 0 C5.0515408 0.54649432 10.01832953 0.67258878 15.09562874 0.65511417 C16.02297227 0.6559686 16.9503158 0.65682302 17.90576065 0.65770334 C20.98411542 0.65933819 24.06241456 0.65386972 27.14076424 0.64838505 C29.35895982 0.64810272 31.5771555 0.6482618 33.79535103 0.64882755 C39.79664182 0.64911374 45.7979125 0.64324582 51.79919863 0.6362536 C58.07856996 0.62999038 64.35794178 0.62941391 70.63731575 0.62822819 C81.17020681 0.62547606 91.70309168 0.61923541 102.23597908 0.61029911 C113.08070527 0.60110786 123.92542946 0.59403542 134.77015877 0.5897913 C135.43960554 0.58952857 136.10905231 0.58926585 136.79878534 0.58899517 C140.15749502 0.58769005 143.51620471 0.58642636 146.87491441 0.58518326 C174.70035254 0.57473868 202.52578248 0.55715618 230.35121346 0.53485966 C228.91928445 8.42535066 224.78975415 16.59365401 218.35121346 21.53485966 C210.59428616 26.41681252 202.36502606 26.15201746 193.51625252 26.17597294 C191.92338342 26.19455856 190.33053271 26.21478073 188.73770332 26.23650455 C184.42913725 26.28982267 180.12075813 26.31804657 175.81193066 26.3399539 C172.19723117 26.36036486 168.58267067 26.39245767 164.96805644 26.4242686 C156.4221706 26.49900531 147.87632721 26.5526387 139.33021736 26.59345341 C130.56575505 26.63570881 121.80217651 26.71479247 113.03816819 26.81218827 C105.47603228 26.89480431 97.91395801 26.95317834 90.35147643 26.99303901 C85.85197329 27.01703443 81.35300673 27.04976427 76.85378456 27.10630512 C40.66462057 27.54174857 40.66462057 27.54174857 23.35121346 20.53485966 C22.22268456 20.09524906 21.09415565 19.65563847 19.93142891 19.20270634 C17.45383234 18.19287363 15.06316543 17.09164779 12.66371346 15.90985966 C11.09831567 15.16554749 9.53190783 14.42335589 7.96449471 13.68329716 C7.21748299 13.32711308 6.47047127 12.97092899 5.70082283 12.60395145 C2.35897954 11.08338498 -1.05340951 9.76457674 -4.48350334 8.45746708 C-7.3415376 7.23968475 -9.49014498 5.76545594 -11.64878654 3.53485966 C-11.64878654 2.54485966 -11.64878654 1.55485966 -11.64878654 0.53485966 C-7.56848714 -0.26345979 -4.13331711 -0.50498219 0 0 Z " fill="#000000" transform="translate(470.6487865447998,561.4651403427124)"/>
<path d="M0 0 C28.53678148 -0.0233253 57.07356153 -0.04097736 85.61035061 -0.05181217 C98.85945898 -0.05697592 112.10856144 -0.0640201 125.35766602 -0.07543945 C136.90100882 -0.0853839 148.44434735 -0.09185286 159.98769432 -0.09408849 C166.10392255 -0.09539601 172.22013853 -0.09848442 178.33636284 -0.10573006 C184.08590521 -0.11248651 189.83543023 -0.11461773 195.5849762 -0.11310768 C197.70184486 -0.11338418 199.81871406 -0.11539151 201.9355793 -0.11920547 C204.81229417 -0.12413687 207.68894235 -0.12300035 210.56565857 -0.12025452 C211.4148634 -0.12316736 212.26406824 -0.1260802 213.13900656 -0.12908131 C218.88587879 -0.11412121 218.88587879 -0.11412121 220 1 C220.95070136 6.28167424 221.05645182 11.448162 221.02734375 16.8046875 C221.02536987 17.49812256 221.023396 18.19155762 221.0213623 18.90600586 C221.01624343 20.60401112 221.00839798 22.30200779 221 24 C219.91570489 23.99907821 218.83140978 23.99815641 217.71425724 23.99720669 C191.3235758 23.97500114 164.93289557 23.95857137 138.54220676 23.94818783 C125.77984345 23.94303288 113.01748631 23.93600542 100.25512695 23.92456055 C89.13067891 23.91458926 78.00623534 23.90814074 66.88178295 23.90591151 C60.99221839 23.90460856 55.10266662 23.90154898 49.21310616 23.89426994 C43.66709107 23.88747118 38.12109401 23.8853909 32.57507515 23.88689232 C30.54219464 23.88661773 28.50931351 23.88463552 26.47643661 23.88079453 C23.69447929 23.87579702 20.91258948 23.87702397 18.13063049 23.87974548 C17.33196503 23.87683264 16.53329956 23.8739198 15.71043211 23.87091869 C11.07671937 23.88311588 6.58855346 24.20339645 1.99565166 24.82820231 C-0.7802506 25.06716866 -3.29920435 24.62326053 -6 24 C-5.38456044 20.74811414 -4.75598514 17.49890221 -4.125 14.25 C-3.95097656 13.32960938 -3.77695312 12.40921875 -3.59765625 11.4609375 C-3.42363281 10.57148437 -3.24960937 9.68203125 -3.0703125 8.765625 C-2.91320801 7.94868164 -2.75610352 7.13173828 -2.59423828 6.29003906 C-1.99365204 3.97553661 -1.09674859 2.11507607 0 0 Z " fill="#000000" transform="translate(474,516)"/>
<path d="M0 0 C28.61257208 -0.09119748 57.22512594 -0.1620113 85.83781483 -0.20426132 C89.21373551 -0.20926431 92.58965591 -0.21444158 95.96557617 -0.21972656 C96.97372826 -0.22130043 96.97372826 -0.22130043 98.00224706 -0.22290608 C108.89312892 -0.24032412 119.78392656 -0.27186945 130.67475841 -0.30861118 C141.84493404 -0.34598179 153.01508075 -0.36792809 164.1853196 -0.37635398 C170.46153958 -0.38157988 176.73756835 -0.3939069 183.01372719 -0.42292023 C188.91600704 -0.44998521 194.81801616 -0.45846304 200.72035217 -0.45243073 C202.89122169 -0.45353496 205.06209986 -0.46154157 207.23291588 -0.4768219 C210.18806984 -0.49661011 213.14219039 -0.49197999 216.09736633 -0.48101807 C217.3974536 -0.49849512 217.3974536 -0.49849512 218.72380525 -0.51632524 C224.49550854 -0.45811984 224.49550854 -0.45811984 227.02907085 1.84256363 C228.36518927 4.81146253 228.46961228 6.77980148 228 10 C224.95331046 13.89411936 221.34760928 15.27101902 216.78515625 16.76171875 C215.74602333 17.1159063 215.74602333 17.1159063 214.68589783 17.47724915 C213.22612565 17.97250313 211.76444566 18.46216511 210.30102539 18.9465332 C208.06963231 19.68513916 205.84410948 20.43955227 203.61914062 21.19726562 C202.19562576 21.67801191 200.77180715 22.15785994 199.34765625 22.63671875 C198.68604996 22.85962082 198.02444366 23.08252289 197.3427887 23.31217957 C191.44434023 25.26062325 186.33742922 26.12547067 180.11932373 26.16062927 C179.43944845 26.16571709 178.75957318 26.17080491 178.05909562 26.17604691 C175.78777138 26.19170525 173.51647881 26.2002788 171.24511719 26.20874023 C169.61368105 26.2182839 167.98224691 26.22817529 166.35081482 26.23838806 C160.9995258 26.26970861 155.64822152 26.29003 150.296875 26.30859375 C149.38540868 26.31189107 148.47394236 26.31518839 147.53485584 26.31858563 C138.93437284 26.34935899 130.33388621 26.37605679 121.73336411 26.39300442 C110.74617505 26.41491228 99.75947451 26.45690126 88.77248073 26.52644199 C81.0389727 26.57372332 73.30559631 26.59794329 65.57194829 26.6052013 C60.95655026 26.6101504 56.3417036 26.62516101 51.72646332 26.6649456 C47.38257784 26.70189976 43.03955667 26.71019323 38.69554329 26.69693947 C37.10607756 26.69699327 35.51657264 26.70722897 33.92725182 26.7286911 C24.70226078 26.84655357 18.14632784 26.28607636 11 20 C9.9275 19.2575 8.855 18.515 7.75 17.75 C3.65657534 13.65657534 0.06839729 8.29275452 -0.05517578 2.34375 C-0.03696777 1.5703125 -0.01875977 0.796875 0 0 Z " fill="#000000" transform="translate(190,553)"/>
<path d="M0 0 C0.7272212 0.00086648 1.4544424 0.00173296 2.2037006 0.0026257 C3.35442731 -0.00183098 3.35442731 -0.00183098 4.52840102 -0.0063777 C7.11871046 -0.01510244 9.70897391 -0.0165761 12.29929692 -0.01806521 C14.14839359 -0.02269067 15.99748931 -0.02771496 17.8465839 -0.03311038 C22.88368805 -0.0462615 27.92077885 -0.05268446 32.95789748 -0.05712104 C36.1009051 -0.06004703 39.24390902 -0.06415089 42.38691479 -0.06862521 C52.20920153 -0.08230648 62.03147989 -0.09197039 71.8537755 -0.0958271 C83.21370976 -0.10031139 94.5735239 -0.11787384 105.93342161 -0.1468277 C114.70028197 -0.16840128 123.46710844 -0.17852904 132.23399508 -0.17986822 C137.47669991 -0.18091924 142.71929194 -0.18688992 147.96196896 -0.20468783 C152.89080763 -0.22109426 157.8194478 -0.22336043 162.74830395 -0.21454883 C164.56159707 -0.21377448 166.37490054 -0.21817305 168.18816715 -0.22800708 C170.65525566 -0.24060681 173.12162824 -0.23491601 175.58871037 -0.22442508 C176.67619608 -0.23650968 176.67619608 -0.23650968 177.78565121 -0.24883842 C179.78032929 -0.2288692 179.78032929 -0.2288692 182.95969731 0.1430676 C183.94969731 1.6280676 183.94969731 1.6280676 184.95969731 3.1430676 C186.62398767 3.48806975 188.2909776 3.8201691 189.95969731 4.1430676 C193.98863314 6.69543009 197.50604304 9.36625506 198.70969731 14.0805676 C198.0348857 16.83604834 197.19520871 18.83382037 195.91282231 21.33447385 C195.54833988 22.04933957 195.18385746 22.76420529 194.80833012 23.50073361 C194.52828129 24.04270383 194.24823246 24.58467404 193.95969731 25.1430676 C168.78158265 25.93636562 143.62916501 26.30994397 118.43892246 26.27163815 C115.72422767 26.26800337 113.0095383 26.26643362 110.29484135 26.26538205 C69.17941958 26.24572897 28.07012383 25.74980597 -13.04030269 25.1430676 C-12.09332872 16.60187605 -12.09332872 16.60187605 -10.66530269 12.89697385 C-10.27084957 11.8596008 -10.27084957 11.8596008 -9.86842769 10.80127072 C-9.59514644 10.10968869 -9.32186519 9.41810666 -9.04030269 8.7055676 C-8.76702144 7.98691525 -8.49374019 7.26826291 -8.21217769 6.52783322 C-5.71009371 0.03345347 -5.71009371 0.03345347 0 0 Z M181.95969731 6.1430676 C182.95969731 9.1430676 182.95969731 9.1430676 182.95969731 9.1430676 Z M180.95969731 9.1430676 C181.95969731 11.1430676 181.95969731 11.1430676 181.95969731 11.1430676 Z M179.95969731 12.1430676 C180.95969731 14.1430676 180.95969731 14.1430676 180.95969731 14.1430676 Z " fill="#000000" transform="translate(223.04030269384384,458.8569324016571)"/>
<path d="M0 0 C0.81452434 -0.00256327 1.62904868 -0.00512655 2.46825558 -0.0077675 C5.18298577 -0.01268786 7.89715317 0.00375843 10.61183167 0.02018738 C12.56357815 0.02103403 14.5153256 0.02055777 16.46707153 0.01885986 C21.75582856 0.01799997 27.04438101 0.0356249 32.33309054 0.05658174 C37.8637429 0.07534944 43.39440006 0.07709906 48.92507935 0.08065796 C59.39385134 0.08997813 69.86252922 0.1145916 80.33125979 0.14470643 C92.25137554 0.17825125 104.17149582 0.19473667 116.09164703 0.20979273 C140.6082744 0.24114113 165.12481826 0.29390115 189.64137268 0.36076355 C190.12835869 1.63050959 190.61261118 2.90130423 191.09571838 4.17253113 C191.3656813 4.88009048 191.63564423 5.58764984 191.91378784 6.31665039 C192.82095298 8.8652854 193.373722 11.38349244 193.82887268 14.04826355 C193.98742737 14.93900574 194.14598206 15.82974792 194.30934143 16.7474823 C194.64137268 19.36076355 194.64137268 19.36076355 194.64137268 24.36076355 C123.69137268 24.36076355 52.74137268 24.36076355 -20.35862732 24.36076355 C-25.25862732 12.11076355 -25.25862732 12.11076355 -23.35862732 7.36076355 C-20.87891698 5.50397561 -18.23574387 4.46662594 -15.35862732 3.36076355 C-14.32655623 2.85419063 -13.29448515 2.3476177 -12.23113918 1.82569408 C-8.19536661 0.10113321 -4.34154897 -0.05058377 0 0 Z " fill="#000000" transform="translate(493.35862731933594,467.6392364501953)"/>
<path d="M0 0 C0.77338431 0.00092179 1.54676863 0.00184359 2.34358883 0.00279331 C3.22844967 0.00141865 4.11331051 0.00004398 5.02498531 -0.00137234 C6.00321758 0.00222294 6.98144985 0.00581821 7.98932552 0.00952244 C9.01359646 0.00937641 10.03786739 0.00923038 11.09317684 0.00907993 C14.49665055 0.00977955 17.9000703 0.0175742 21.30353451 0.02539158 C23.65623094 0.02725559 26.00892776 0.02867957 28.36162472 0.0296793 C34.56769531 0.03350584 40.77374266 0.04333728 46.97980404 0.05438328 C53.30711204 0.06459448 59.63442378 0.06917629 65.96173763 0.0742197 C78.38687807 0.08495942 90.81200124 0.10203747 103.23712826 0.12304783 C105.49536861 8.80093999 106.81195867 17.16516447 107.23712826 26.12304783 C93.91140399 26.28524653 80.58591458 26.40962223 67.25940418 26.48573303 C61.07128563 26.52226298 54.88384246 26.57181114 48.69611263 26.651124 C42.72438707 26.72718904 36.75331104 26.76903991 30.78113842 26.78718853 C28.50288447 26.8001215 26.22466603 26.8253772 23.94668865 26.86315823 C20.75479779 26.91399079 17.56558931 26.92097079 14.37335873 26.91772556 C13.43180431 26.94289249 12.4902499 26.96805943 11.52016354 26.99398899 C5.2515487 26.92504364 5.2515487 26.92504364 2.30652046 24.59671879 C-0.45198514 21.47490799 -2.5008825 18.83748364 -2.60271549 14.53711033 C-2.63300846 13.75207127 -2.66330143 12.9670322 -2.69451237 12.15820408 C-2.69741276 10.96517673 -2.69741276 10.96517673 -2.70037174 9.74804783 C-2.72937565 8.92949314 -2.75837955 8.11093845 -2.78826237 7.26757908 C-2.84428652 5.22015086 -2.81142353 3.17066687 -2.76287174 1.12304783 C-1.76287174 0.12304783 -1.76287174 0.12304783 0 0 Z " fill="#000000" transform="translate(140.76287174224854,125.87695217132568)"/>
<path d="M0 0 C2.5666059 0.18106567 5.10001221 0.52057709 7.65234375 0.84375 C10.02111311 1.2001202 10.02111311 1.2001202 12 0 C14.75517571 -0.11407848 17.48565349 -0.167846 20.24169922 -0.17700195 C21.09388031 -0.18357315 21.9460614 -0.19014435 22.82406616 -0.19691467 C25.65094077 -0.21666482 28.47776226 -0.22831312 31.3046875 -0.23828125 C32.7507456 -0.24439454 32.7507456 -0.24439454 34.226017 -0.25063133 C39.32694536 -0.27149785 44.42784676 -0.28579793 49.52880859 -0.29516602 C54.8039866 -0.30624106 60.078744 -0.34065193 65.35377312 -0.38033772 C69.40464069 -0.40644824 73.45540713 -0.41485282 77.50635147 -0.41844749 C79.45125296 -0.42332666 81.39614954 -0.43497826 83.34096909 -0.45348549 C86.0608253 -0.47776232 88.77958096 -0.47693323 91.49951172 -0.4699707 C92.70752441 -0.48918579 92.70752441 -0.48918579 93.93994141 -0.50878906 C97.52275778 -0.47530775 99.58264524 -0.31237086 102.49221802 1.86531067 C104 4 104 4 104.625 6.625 C103.34298688 13.54787085 98.86289659 19.82437189 93.8803978 24.70854568 C90.2566903 27.19730242 86.30203231 26.78060508 82.04736328 26.68115234 C81.0613765 26.6820285 80.07538971 26.68290466 79.05952454 26.68380737 C75.81230441 26.67963931 72.5671701 26.6330221 69.3203125 26.5859375 C67.06445443 26.57474264 64.80858174 26.56620382 62.55270386 26.56021118 C56.6241405 26.53733609 50.69646344 26.47842272 44.76824951 26.4119873 C38.7154133 26.35053719 32.66243344 26.32319024 26.609375 26.29296875 C14.73919459 26.22867944 2.86967108 26.12631474 -9 26 C-8.88473643 24.3798238 -8.7563459 22.76057736 -8.62231445 21.1418457 C-8.55220657 20.24005081 -8.48209869 19.33825592 -8.40986633 18.40913391 C-7.86447205 15.20338666 -6.43546968 14.0629313 -4 12 C-2.92644866 9.24597834 -2.92644866 9.24597834 -2.3125 6.3125 C-1.06944444 1.06944444 -1.06944444 1.06944444 0 0 Z " fill="#000000" transform="translate(276,134)"/>
<path d="M0 0 C0.7156311 -0.00175232 1.43126221 -0.00350464 2.1685791 -0.00531006 C4.54095872 -0.00972128 6.91326412 -0.00679253 9.28564453 -0.00341797 C10.93230199 -0.00409137 12.57895934 -0.00506169 14.22561646 -0.00631714 C17.68069401 -0.00779324 21.13574575 -0.0056429 24.59082031 -0.00097656 C29.01835125 0.00471174 33.44582145 0.00144688 37.87335014 -0.00454903 C41.27569027 -0.00816461 44.67801603 -0.0070113 48.0803566 -0.00442123 C49.71262748 -0.00375427 51.34489968 -0.00457237 52.97716904 -0.00690079 C55.26085608 -0.00944265 57.54444524 -0.00556465 59.828125 0 C61.77765579 0.00119339 61.77765579 0.00119339 63.76657104 0.00241089 C66.43425251 0.10578705 68.49635632 0.47603104 71.04345703 1.12939453 C71.70345703 0.79939453 72.36345703 0.46939453 73.04345703 0.12939453 C75.39599543 0.03244143 77.75142654 -0.00039597 80.10595703 0.00439453 C81.37568359 0.00181641 82.64541016 -0.00076172 83.95361328 -0.00341797 C87.04345703 0.12939453 87.04345703 0.12939453 88.04345703 1.12939453 C89.12721123 9.01002692 89.5019742 17.18625882 89.04345703 25.12939453 C86.77615308 27.39669848 82.09562816 26.98587551 79.04345703 27.12939453 C77.56024687 27.00369876 76.07952331 26.839904 74.60595703 26.62939453 C71.21066746 25.80946093 71.21066746 25.80946093 69.04345703 27.12939453 C66.51602769 27.2275153 64.01619168 27.26570993 61.48852539 27.25878906 C60.70955399 27.26054138 59.93058258 27.2622937 59.12800598 27.26409912 C56.5464151 27.26850993 53.96489239 27.26558263 51.38330078 27.26220703 C49.59493496 27.26288022 47.80656924 27.26385038 46.01820374 27.2651062 C42.26806773 27.26658207 38.51795551 27.2644319 34.76782227 27.25976562 C29.94988839 27.25406429 25.13201017 27.2573506 20.31407833 27.26333809 C16.62105384 27.26694318 12.92804266 27.26580543 9.23501778 27.2632103 C7.45792192 27.26254109 5.68082486 27.26336921 3.90373039 27.26568985 C1.42545218 27.26821596 -1.05273451 27.26437658 -3.53100586 27.25878906 C-4.64298843 27.26182541 -4.64298843 27.26182541 -5.7774353 27.2649231 C-10.84227947 27.24365803 -10.84227947 27.24365803 -11.95654297 26.12939453 C-12.37894116 20.11022034 -11.65073219 14.53554853 -10.58154297 8.62939453 C-10.45553711 7.91066162 -10.32953125 7.19192871 -10.19970703 6.45141602 C-9.85639435 4.66229465 -9.41417353 2.89274166 -8.95654297 1.12939453 C-5.98723292 -0.3552605 -3.31313791 0.0020306 0 0 Z " fill="#000000" transform="translate(152.95654296875,78.87060546875)"/>
<path d="M0 0 C0.84732193 0.00359528 1.69464386 0.00719055 2.56764221 0.01089478 C3.89922363 0.01067574 3.89922363 0.01067574 5.25770569 0.01045227 C8.20666404 0.01115174 11.15556006 0.01894568 14.10450745 0.02676392 C16.14332037 0.02862798 18.18213374 0.03005194 20.22094727 0.03105164 C25.59844693 0.03487776 30.97591978 0.04470884 36.35340881 0.05575562 C41.83619321 0.06596771 47.31898192 0.07054882 52.80177307 0.07559204 C63.56806093 0.08633103 74.33432883 0.10340858 85.1006012 0.12442017 C84.95014798 1.87320747 84.79724692 3.62178429 84.64332581 5.37026978 C84.55844406 6.34403061 84.47356232 7.31779144 84.3861084 8.32106018 C84.02635673 11.85341738 83.41169862 15.21544508 82.6631012 18.68692017 C82.41689026 19.86383423 82.17067932 21.04074829 81.91700745 22.25332642 C81.1006012 25.12442017 81.1006012 25.12442017 79.1006012 27.12442017 C76.14785205 27.31273489 73.28957266 27.37609288 70.33644104 27.35147095 C69.42906693 27.351763 68.52169281 27.35205505 67.58682251 27.35235596 C64.57829833 27.35095915 61.57001977 27.33538145 58.5615387 27.31973267 C56.47931555 27.31600378 54.39709064 27.31315622 52.31486511 27.31115723 C46.82719603 27.30351094 41.33963236 27.28385391 35.852005 27.26174927 C30.25519741 27.24131225 24.65837283 27.23216011 19.0615387 27.22207642 C8.07451315 27.20060896 -2.91243407 27.16646103 -13.8993988 27.12442017 C-13.74848292 25.67765137 -13.59479401 24.23117165 -13.43992615 22.78482056 C-13.31199173 21.57651329 -13.31199173 21.57651329 -13.18147278 20.34379578 C-12.87790881 17.95533559 -12.3476712 15.82370616 -11.5243988 13.56192017 C-11.26143005 12.8284436 -10.9984613 12.09496704 -10.7275238 11.33926392 C-10.45424255 10.60836548 -10.1809613 9.87746704 -9.8993988 9.12442017 C-9.62611755 8.36258423 -9.3528363 7.60074829 -9.0712738 6.81582642 C-6.59709065 0.01182274 -6.59709065 0.01182274 0 0 Z " fill="#000000" transform="translate(162.89939880371094,31.875579833984375)"/>
<path d="M0 0 C11.64803481 -0.13901044 23.29587237 -0.24562662 34.94456768 -0.31087303 C40.35356122 -0.34218808 45.76198734 -0.38466479 51.1706543 -0.45263672 C56.39023731 -0.51782199 61.60927454 -0.55370473 66.82923317 -0.56926346 C68.82081508 -0.58035123 70.81236707 -0.60200353 72.80371666 -0.63438034 C75.59335271 -0.67793304 78.38073305 -0.68393467 81.1706543 -0.68115234 C81.99424438 -0.702724 82.81783447 -0.72429565 83.66638184 -0.746521 C89.1383623 -0.68745801 89.1383623 -0.68745801 91.6252079 1.29667282 C94.12763505 4.20341625 95.61945773 6.84250677 96.1875 10.625 C96.69614823 13.81103836 97.55672858 16.12514356 99 19 C99.25 22.125 99.25 22.125 99 25 C97 27 97 27 94.02177429 27.24723816 C92.74445938 27.24581314 91.46714447 27.24438812 90.15112305 27.24291992 C89.09471619 27.24576744 89.09471619 27.24576744 88.01696777 27.24867249 C85.68177256 27.25238597 83.34688648 27.24166493 81.01171875 27.23046875 C79.38987769 27.22927674 77.76803593 27.22882383 76.14619446 27.2290802 C72.74235732 27.22751414 69.33862517 27.21921769 65.93481445 27.20581055 C61.57687632 27.18886109 57.21905408 27.18499504 52.86108685 27.18575573 C49.50931191 27.18548335 46.1575622 27.17999057 42.80579567 27.17275429 C41.1994731 27.16957658 39.59314767 27.16760231 37.98682213 27.16686058 C35.73685251 27.16468518 33.487004 27.15591397 31.23706055 27.14526367 C29.31750801 27.13954597 29.31750801 27.13954597 27.35917664 27.13371277 C24 27 24 27 21.23518372 26.42842102 C18.84222306 25.78083731 18.84222306 25.78083731 16 27 C14.48138245 27.09203743 12.95889574 27.13001284 11.4375 27.125 C10.65246094 27.12757812 9.86742187 27.13015625 9.05859375 27.1328125 C7 27 7 27 5 26 C4.2795892 22.729863 3.74102885 19.47346572 3.23242188 16.16601562 C2.63579466 12.59614119 2.00283919 10.00559154 0.33984375 6.73046875 C-1.1599869 3.67396255 -0.98350182 3.08213264 0 0 Z " fill="#000000" transform="translate(267,40)"/>
<path d="M0 0 C31.35 0 62.7 0 95 0 C98 17 98 17 98 25 C65 25 32 25 -2 25 C-1 6 -1 6 0 0 Z M16 4 C16 8.62 16 13.24 16 18 C16.33 18 16.66 18 17 18 C17 13.38 17 8.76 17 4 C16.67 4 16.34 4 16 4 Z " fill="#000000" transform="translate(275,88)"/>
<path d="M0 0 C4.63219893 2.38847758 8.17795348 5.49311474 12 9 C13.5703939 10.14299276 15.15214464 11.270723 16.75 12.375 C18.671875 13.7109375 18.671875 13.7109375 20 15 C20 15.99 20 16.98 20 18 C-11.68 18 -43.36 18 -76 18 C-76 17.01 -76 16.02 -76 15 C-75.21689453 14.84966309 -74.43378906 14.69932617 -73.62695312 14.54443359 C-59.83956747 11.8823333 -46.07600759 9.16865094 -32.4375 5.8125 C-31.45265625 5.57515137 -30.4678125 5.33780273 -29.453125 5.09326172 C-24.18496897 3.77028432 -24.18496897 3.77028432 -19.3515625 1.37109375 C-13.98813976 -1.75608463 -5.97386425 -1.26243264 0 0 Z " fill="#000000" transform="translate(644,429)"/>
<path d="M0 0 C17.73364604 6.29127052 36.52351102 9.6641531 55.02734375 12.89453125 C55.02734375 13.88453125 55.02734375 14.87453125 55.02734375 15.89453125 C25.32734375 15.89453125 -4.37265625 15.89453125 -34.97265625 15.89453125 C-33.30036613 9.20537076 -27.6807953 5.69606967 -22.41015625 1.64453125 C-21.84619141 1.19851563 -21.28222656 0.7525 -20.70117188 0.29296875 C-12.9254445 -5.70934712 -8.61069381 -3.20213712 0 0 Z " fill="#000000" transform="translate(262.97265625,422.10546875)"/>
<path d="M0 0 C7.31397841 -0.07608962 14.62785466 -0.12861664 21.94213867 -0.16479492 C24.4301332 -0.17987761 26.91810117 -0.20034654 29.40600586 -0.22631836 C32.98297688 -0.26272337 36.55959622 -0.27973184 40.13671875 -0.29296875 C41.80416389 -0.31619453 41.80416389 -0.31619453 43.5052948 -0.33988953 C44.54599625 -0.34011612 45.58669769 -0.34034271 46.65893555 -0.34057617 C48.02794258 -0.35056892 48.02794258 -0.35056892 49.42460632 -0.36076355 C52.5871261 0.08224517 54.47715408 1.05944362 57 3 C57 3.99 57 4.98 57 6 C56.20416504 6.21092285 55.40833008 6.4218457 54.58837891 6.63916016 C51.58425324 7.44331464 48.58432666 8.26134587 45.58642578 9.08837891 C43.67113349 9.61237847 41.75161166 10.12084017 39.83203125 10.62890625 C32.07843481 12.78042777 25.63120783 15.43373744 19 20 C16 22 16 22 12.65625 22.1796875 C7.9810714 20.67124312 7.06061987 18.84578485 4.78125 14.66015625 C4.3584375 13.82355469 3.935625 12.98695313 3.5 12.125 C3.04625 11.29613281 2.5925 10.46726563 2.125 9.61328125 C-0.2576368 5.11678071 -0.2576368 5.11678071 -1 3 C-0.67 2.01 -0.34 1.02 0 0 Z " fill="#000000" transform="translate(182,173)"/>
<path d="M0 0 C1.56139206 0.0001133 1.56139206 0.0001133 3.15432739 0.00022888 C4.28144135 0.00539017 5.4085553 0.01055145 6.56982422 0.01586914 C7.72118866 0.01728409 8.8725531 0.01869904 10.05880737 0.02015686 C13.74740158 0.02576823 17.43593576 0.03832269 21.12451172 0.05102539 C23.62060459 0.05603892 26.11669842 0.06060208 28.61279297 0.06469727 C34.7417198 0.07574136 40.87061147 0.0924906 46.99951172 0.11352539 C46.39370556 3.33114843 45.75240039 5.96502823 44.18701172 8.84790039 C43.83380859 9.5040332 43.48060547 10.16016602 43.11669922 10.83618164 C42.74802734 11.50520508 42.37935547 12.17422852 41.99951172 12.86352539 C41.63083984 13.54801758 41.26216797 14.23250977 40.88232422 14.93774414 C38.16252579 19.95051132 38.16252579 19.95051132 36.99951172 21.11352539 C33.99877335 21.63865461 31.85231748 21.65879279 29.23388672 19.98461914 C28.57904297 19.4909082 27.92419922 18.99719727 27.24951172 18.48852539 C17.62395595 11.58749134 4.3339588 8.95962003 -7.00048828 6.11352539 C-7.00048828 4.46352539 -7.00048828 2.81352539 -7.00048828 1.11352539 C-4.49499383 -0.13922184 -2.80313196 -0.00677085 0 0 Z " fill="#000000" transform="translate(286.00048828125,180.886474609375)"/>
<path d="M0 0 C2.95975453 1.68244602 5.45837569 3.74550479 8 6 C8.53367187 6.4640625 9.06734375 6.928125 9.6171875 7.40625 C11 8.6875 11 8.6875 13 11 C13 11.99 13 12.98 13 14 C1.99816288 14.89883297 -8.90423661 15.12512857 -19.9375 15.0625 C-21.50716 15.05746644 -23.0768216 15.05290687 -24.64648438 15.04882812 C-28.43103017 15.03798912 -32.21549656 15.02083095 -36 15 C-36.33 14.34 -36.66 13.68 -37 13 C-34.58004394 10.16708901 -32.32456615 9.1938705 -28.81640625 8.02734375 C-27.30143555 7.51397461 -27.30143555 7.51397461 -25.75585938 6.99023438 C-24.70205078 6.64283203 -23.64824219 6.29542969 -22.5625 5.9375 C-20.47966941 5.24066595 -18.39760535 4.54153548 -16.31640625 3.83984375 C-15.39287354 3.53425537 -14.46934082 3.22866699 -13.51782227 2.91381836 C-11.02355519 2.06665933 -11.02355519 2.06665933 -8.87084961 0.91625977 C-5.70044977 -0.63646248 -3.48155806 -0.46420774 0 0 Z " fill="#000000" transform="translate(320,5)"/>
<path d="M0 0 C0.73605469 0.22042969 1.47210938 0.44085938 2.23046875 0.66796875 C2.56046875 0.33796875 2.89046875 0.00796875 3.23046875 -0.33203125 C5.25011074 -0.40447178 7.27213999 -0.41580313 9.29296875 -0.39453125 C10.39769531 -0.38550781 11.50242188 -0.37648437 12.640625 -0.3671875 C13.49527344 -0.35558594 14.34992188 -0.34398438 15.23046875 -0.33203125 C15.23046875 0.32796875 15.23046875 0.98796875 15.23046875 1.66796875 C16.50921875 1.93609375 17.78796875 2.20421875 19.10546875 2.48046875 C24.23109292 3.61315835 29.22336363 5.09998176 34.23046875 6.66796875 C34.72546875 9.14296875 34.72546875 9.14296875 35.23046875 11.66796875 C19.39046875 11.66796875 3.55046875 11.66796875 -12.76953125 11.66796875 C-12.76953125 7.66796875 -12.76953125 7.66796875 -10.7578125 5.4921875 C-9.87480469 4.78707031 -8.99179688 4.08195313 -8.08203125 3.35546875 C-7.21191406 2.63746094 -6.34179688 1.91945312 -5.4453125 1.1796875 C-2.76953125 -0.33203125 -2.76953125 -0.33203125 0 0 Z " fill="#000000" transform="translate(193.76953125,0.33203125)"/>
<path d="M0 0 C12.21 0 24.42 0 37 0 C37 0.99 37 1.98 37 3 C35.74703125 3.39832031 34.4940625 3.79664063 33.203125 4.20703125 C31.55195317 4.74178576 29.90091862 5.27696428 28.25 5.8125 C27.425 6.07353516 26.6 6.33457031 25.75 6.60351562 C20.9850817 8.13409243 20.9850817 8.13409243 16.734375 10.69921875 C13.74785349 12.93910988 10.875944 12.11997466 7.34765625 11.63671875 C5 11 5 11 2.4375 8.8125 C1 6 1 6 0 0 Z " fill="#000000" transform="translate(240,600)"/>
<path d="M0 0 C11.22 0 22.44 0 34 0 C35 5 35 5 33.75 7.6875 C32 10 32 10 29 12 C22.59659948 12.77198357 17.94462201 10.63696204 12.25 8.0625 C10.56798542 7.32358768 8.88570498 6.58528018 7.203125 5.84765625 C6.46739258 5.51773682 5.73166016 5.18781738 4.97363281 4.84790039 C2.85538913 3.90517254 2.85538913 3.90517254 0 3 C0 2.01 0 1.02 0 0 Z " fill="#000000" transform="translate(614,609)"/>
<path d="M0 0 C2.97 0 5.94 0 9 0 C9 0.66 9 1.32 9 2 C6.03 2 3.06 2 0 2 C0 1.34 0 0.68 0 0 Z " fill="#000000" transform="translate(605,429)"/>
<path d="M0 0 C2.31 0 4.62 0 7 0 C7 0.66 7 1.32 7 2 C4.69 2 2.38 2 0 2 C0 1.34 0 0.68 0 0 Z " fill="#000000" transform="translate(773,429)"/>
</svg>
