<?xml version="1.0" encoding="UTF-8"?>
<svg version="1.1" xmlns="http://www.w3.org/2000/svg" width="800" height="800">
<path d="M0 0 C76.23 0 152.46 0 231 0 C230 5 230 5 228.51806641 6.59643555 C221.04733065 11.54684775 212.83628123 14.11051596 204.375 16.8125 C202.76955434 17.33428727 201.16425038 17.85651068 199.55908203 18.37915039 C194.71479464 19.94757209 189.8595486 21.47961045 185 23 C184.278125 23.22659302 183.55625 23.45318604 182.8125 23.68664551 C158.60780929 31.26607671 134.42760775 36.48953909 109.21826172 39.48168945 C92.42918219 41.58421797 77.6018225 46.84225366 63.8671875 56.8359375 C61.82505921 58.1090635 60.39649073 58.7482286 58 59 C55.9296875 58.4765625 55.9296875 58.4765625 54 57 C52.5078125 54.0234375 52.5078125 54.0234375 51.125 50.375 C44.53264262 34.19207781 32.18433716 28.09113768 17.41845703 20.09399414 C11.28200697 16.73897541 6.93200355 13.42820617 3.1875 7.375 C2.58292969 6.41335938 1.97835937 5.45171875 1.35546875 4.4609375 C0 2 0 2 0 0 Z " fill="#000000" transform="translate(182,559)"/>
<path d="M0 0 C74.91 0 149.82 0 227 0 C226.11789937 3.52840253 225.35064305 5.40363341 223.4375 8.375 C222.98246094 9.10460937 222.52742187 9.83421875 222.05859375 10.5859375 C215.89611007 17.81253126 206.99625622 21.96068978 198.77734375 26.41210938 C189.22904084 31.71440568 182.8306498 36.91413547 178.125 46.875 C177.3824881 48.39562369 176.63532526 49.91398803 175.8828125 51.4296875 C175.56715332 52.09210449 175.25149414 52.75452148 174.92626953 53.43701172 C174 55 174 55 172 56 C166.29367752 56.50553585 163.327696 55.40969134 158.5 52.4375 C139.85220065 41.95159193 118.25356717 39.07541314 97.48046875 35.28344727 C78.26161914 31.77355957 59.37256788 27.77863781 40.76416016 21.77050781 C38.34228812 20.98945037 35.91576763 20.2243468 33.48828125 19.4609375 C5.81125218 10.68294001 5.81125218 10.68294001 0 4 C0 2.68 0 1.36 0 0 Z " fill="#000000" transform="translate(469,568)"/>
<path d="M0 0 C31.02 0 62.04 0 94 0 C89.27050448 9.45899105 78.15851415 14.4852251 69.30908203 19.61132812 C58.79463135 25.73672852 51.78645308 31.14920591 46.4375 42.1875 C43.08705357 49.00249475 43.08705357 49.00249475 40 51 C36.02451957 51.50597024 33.69965117 51.32749629 30.0625 49.625 C29.381875 49.08875 28.70125 48.5525 28 48 C28 47.34 28 46.68 28 46 C22.86973006 44.44093636 17.73313897 42.91286253 12.5703125 41.46484375 C11.673125 41.21283203 10.7759375 40.96082031 9.8515625 40.70117188 C8.0111054 40.18568568 6.16993956 39.67272417 4.328125 39.16210938 C3.43867188 38.91138672 2.54921875 38.66066406 1.6328125 38.40234375 C0.83762207 38.18054443 0.04243164 37.95874512 -0.77685547 37.73022461 C-3 37 -3 37 -7 35 C-5.68611749 23.17505737 -2.6753137 11.59302602 0 0 Z " fill="#000000" transform="translate(276,151)"/>
<path d="M0 0 C29.37 0 58.74 0 89 0 C90.86728341 5.60185024 92.64962549 11.06988114 94.1875 16.75 C94.53167969 18.00296875 94.87585938 19.2559375 95.23046875 20.546875 C95.90053308 23.55366115 96.06414482 25.95360967 96 29 C95.21874756 29.19634033 94.43749512 29.39268066 93.63256836 29.5949707 C90.06601621 30.49487261 86.50176973 31.40360207 82.9375 32.3125 C81.70837891 32.62123047 80.47925781 32.92996094 79.21289062 33.24804688 C68.53603251 35.90906993 68.53603251 35.90906993 59 41.1875 C55.25414549 43.45062043 53.3099341 43.69266798 49 43 C44.31056061 40.2945542 42.84029197 38.25831605 41.4375 33.0625 C41.18806641 31.84240234 41.18806641 31.84240234 40.93359375 30.59765625 C38.17428628 22.92008524 31.85673465 19.80947488 25.0625 16.125 C23.18487364 15.08076907 21.30726956 14.03649809 19.4296875 12.9921875 C18.51026367 12.48655273 17.59083984 11.98091797 16.64355469 11.45996094 C12.96822494 9.43017964 9.32688544 7.34331075 5.6875 5.25 C4.57761719 4.61578125 3.46773437 3.9815625 2.32421875 3.328125 C1.55722656 2.88984375 0.79023438 2.4515625 0 2 C0 1.34 0 0.68 0 0 Z " fill="#000000" transform="translate(135,151)"/>
</svg>
