<?xml version="1.0" encoding="UTF-8"?>
<svg version="1.1" xmlns="http://www.w3.org/2000/svg" width="800" height="800">
<path d="M0 0 C69.63 0 139.26 0 211 0 C216 17 216 17 216 22 C187.88896167 22.1166769 159.77795951 22.20491149 131.66672802 22.25906086 C118.61489467 22.28486893 105.56321155 22.32006932 92.51147461 22.37719727 C81.13877669 22.42695237 69.76618753 22.45927205 58.3933838 22.47044247 C52.36862211 22.47697457 46.34417167 22.4923811 40.31950951 22.52865028 C34.65356821 22.56248488 28.98806756 22.57307828 23.32203484 22.56553841 C21.23823404 22.56691857 19.15441911 22.57692523 17.07070541 22.59602737 C14.23357477 22.6207694 11.39812538 22.61497435 8.56095886 22.60127258 C7.72925255 22.61583679 6.89754625 22.630401 6.04063672 22.64540654 C3.74249554 22.61523914 3.74249554 22.61523914 0 22 C-2.51955815 18.98981125 -3.41779877 16.58932125 -3.375 12.6875 C-3.38273438 11.99011719 -3.39046875 11.29273438 -3.3984375 10.57421875 C-3 8 -3 8 0 0 Z " fill="#000000" transform="translate(193,537)"/>
<path d="M0 0 C68.31 0 136.62 0 207 0 C213 19 213 19 213 22 C140.73 22 68.46 22 -6 22 C-2 5 -2 5 0 0 Z " fill="#000000" transform="translate(489,537)"/>
<path d="M0 0 C0.74599382 0.00086648 1.49198764 0.00173296 2.26058733 0.0026257 C3.04745067 -0.00034542 3.834314 -0.00331654 4.64502168 -0.0063777 C7.30209455 -0.01510293 9.95912258 -0.01657615 12.61620867 -0.01806521 C14.51294326 -0.02269068 16.40967692 -0.02771496 18.30640948 -0.03311038 C23.47374191 -0.04626234 28.64106134 -0.05268474 33.8084079 -0.05712104 C37.03316801 -0.06004718 40.25792452 -0.06415109 43.48268282 -0.06862521 C53.56179484 -0.08230732 63.64089868 -0.09197056 73.72001934 -0.0958271 C85.37425493 -0.10031019 97.02837337 -0.11786676 108.68257332 -0.1468277 C117.67789746 -0.16840911 126.67318856 -0.17852948 135.66853833 -0.17986822 C141.04708988 -0.18091877 146.42553141 -0.18687941 151.80405581 -0.20468783 C156.86175785 -0.22110749 161.91926646 -0.22335388 166.97698557 -0.21454883 C168.83662268 -0.21377517 170.69626992 -0.2181641 172.55588114 -0.22800708 C175.08829883 -0.24062841 177.62002123 -0.23490384 180.15243304 -0.22442508 C180.89396541 -0.23248148 181.63549779 -0.24053789 182.39950085 -0.24883842 C186.76877856 -0.20634926 187.57944231 -0.11098392 190.83349383 3.1430676 C190.83349383 9.4130676 190.83349383 15.6830676 190.83349383 22.1430676 C124.83349383 22.1430676 58.83349383 22.1430676 -9.16650617 22.1430676 C-8.03300491 9.67455374 -8.03300491 9.67455374 -7.16650617 5.5180676 C-7.00150617 4.70080197 -6.83650617 3.88353635 -6.66650617 3.0415051 C-5.66546941 -0.75930636 -3.55516338 0.02030809 0 0 Z " fill="#000000" transform="translate(207.1665061712265,491.8569324016571)"/>
<path d="M0 0 C17.66305946 -0.11570583 35.32598903 -0.20495267 52.98934555 -0.25906086 C61.19061935 -0.28485117 69.39165347 -0.32001717 77.59277344 -0.37719727 C84.7402386 -0.42700732 91.88753021 -0.45928501 99.03516412 -0.47044247 C102.8204727 -0.47696543 106.60528472 -0.49231239 110.39043427 -0.52865028 C113.95279889 -0.56257255 117.51446217 -0.57306102 121.07697296 -0.56553841 C123.00860027 -0.56757126 124.94015105 -0.59448642 126.87158203 -0.62210083 C128.02140564 -0.61522751 129.17122925 -0.60835419 130.355896 -0.60127258 C131.35511959 -0.60588155 132.35434319 -0.61049051 133.38384628 -0.61523914 C136.99472725 0.23392935 138.0076633 1.96023634 140 5 C140.5878125 6.299375 140.5878125 6.299375 141.1875 7.625 C144.01173431 11.32572082 147.47389658 12.32393109 152 13 C155.96831606 12.74418088 159.55980315 12.20692553 162.6640625 9.60546875 C164.21041897 7.87573378 164.21041897 7.87573378 165.5 4.9375 C167 2 167 2 170 0 C172.63549805 -0.22705078 172.63549805 -0.22705078 175.76171875 -0.1953125 C177.43911133 -0.18564453 177.43911133 -0.18564453 179.15039062 -0.17578125 C180.90125977 -0.15064453 180.90125977 -0.15064453 182.6875 -0.125 C184.45577148 -0.11146484 184.45577148 -0.11146484 186.25976562 -0.09765625 C189.17338026 -0.07406423 192.08658892 -0.0411454 195 0 C195.51064956 2.16418148 196.0079886 4.33150531 196.5 6.5 C196.91765625 8.30984375 196.91765625 8.30984375 197.34375 10.15625 C198 14 198 14 198 22 C132 22 66 22 -2 22 C-1.34 14.74 -0.68 7.48 0 0 Z " fill="#000000" transform="translate(494,492)"/>
<path d="M0 0 C5.85025972 -0.08637155 11.70047324 -0.15373613 17.55116272 -0.20323753 C20.81129032 -0.23159977 24.07031122 -0.27316063 27.33000183 -0.3348341 C42.17658143 -0.60831408 54.58031014 0.2293644 68.30845642 6.17520618 C67.43345642 16.67520618 67.43345642 16.67520618 66.30845642 21.17520618 C7.23845642 21.17520618 -51.83154358 21.17520618 -112.69154358 21.17520618 C-110.43225074 11.00838841 -110.43225074 11.00838841 -108.62904358 6.67520618 C-108.28744202 5.83989368 -107.94584045 5.00458118 -107.59388733 4.14395618 C-106.69154358 2.17520618 -106.69154358 2.17520618 -105.69154358 1.17520618 C-103.13320352 1.04977032 -100.60061313 0.9890815 -98.04066467 0.96988392 C-97.23341792 0.96000415 -96.42617117 0.95012438 -95.59446239 0.93994522 C-92.88466592 0.90809724 -90.17485201 0.88343678 -87.46498108 0.85879993 C-85.55188592 0.83786271 -83.63879491 0.8165439 -81.72570801 0.79486561 C-75.50605312 0.72644611 -69.28632089 0.66872754 -63.06654358 0.61270618 C-62.01462704 0.60310242 -60.96271049 0.59349865 -59.87891769 0.58360386 C-50.26664716 0.49605698 -40.65435935 0.41097822 -31.04199219 0.33470631 C-20.69411486 0.25176118 -10.34708905 0.15342197 0 0 Z " fill="#000000" transform="translate(329.69154357910156,445.8247938156128)"/>
<path d="M0 0 C1.2549678 -0.0181073 2.50993561 -0.0362146 3.80293274 -0.05487061 C7.21617906 -0.09934041 10.62888203 -0.13023428 14.04231191 -0.15129232 C16.18021693 -0.16460424 18.31808226 -0.18085899 20.45596123 -0.19781876 C27.16162539 -0.24944199 33.86718858 -0.28762967 40.57302004 -0.30824459 C48.28537934 -0.33230674 55.99551959 -0.40265227 63.70712668 -0.51224697 C69.69130975 -0.59433839 75.67486089 -0.63389734 81.65959734 -0.64184773 C85.22489694 -0.64757667 88.78789374 -0.67108682 92.35258675 -0.73958969 C96.32822344 -0.81471263 100.30099616 -0.80163653 104.27734375 -0.78125 C105.44487183 -0.8160849 106.6123999 -0.8509198 107.81530762 -0.8868103 C112.89474206 -0.79628726 115.88222194 -0.54880716 119.75683403 2.91027451 C122.05212095 5.68852048 124.08844086 8.51019998 126.07397461 11.51513672 C127.09263828 12.85012841 128.11308717 14.18376276 129.13647461 15.51513672 C131.07397461 18.51513672 131.07397461 18.51513672 131.07397461 21.51513672 C106.5963695 21.56180048 82.11877103 21.59709792 57.64113045 21.61876106 C46.27644491 21.62908575 34.91178697 21.64316879 23.54711914 21.66601562 C13.64486164 21.68591308 3.74262411 21.69884447 -6.15965283 21.70331371 C-11.40570429 21.70592728 -16.65169859 21.71209493 -21.89773178 21.72659683 C-26.83062214 21.74012323 -31.76343152 21.74436943 -36.69633865 21.74135208 C-38.51124257 21.74190447 -40.32614906 21.74591123 -42.14103699 21.75354767 C-44.61022883 21.76343172 -47.07911099 21.76112976 -49.54830933 21.75564575 C-50.63681822 21.76438428 -50.63681822 21.76438428 -51.74731719 21.77329934 C-56.69778297 21.74337914 -56.69778297 21.74337914 -58.92602539 19.51513672 C-58.92602539 18.19513672 -58.92602539 16.87513672 -58.92602539 15.51513672 C-53.98284046 13.85909688 -49.03896899 12.20512794 -44.09448242 10.55297852 C-42.41656315 9.99200781 -40.73882464 9.43049611 -39.0612793 8.8684082 C-36.63386952 8.05517533 -34.20579114 7.24396565 -31.77758789 6.43310547 C-31.04174469 6.18610397 -30.30590149 5.93910248 -29.54776001 5.68461609 C-28.13047575 5.21213844 -26.71097145 4.74625053 -25.28898525 4.28811836 C-23.77205003 3.79189196 -22.26128466 3.27614395 -20.75936794 2.73616314 C-13.79507582 0.38053051 -7.31233494 0.04075361 0 0 Z " fill="#000000" transform="translate(551.926025390625,445.48486328125)"/>
<path d="M0 0 C56.43 0 112.86 0 171 0 C169.73927292 5.04290832 167.34768219 6.15450627 163.1875 8.75 C161.93072698 9.55688279 160.67422616 10.36418967 159.41796875 11.171875 C158.76078354 11.57956116 158.10359833 11.98724731 157.42649841 12.4072876 C154.93168967 14.00059904 154.93168967 14.00059904 152.43629456 15.97894287 C144.60743631 21.81332463 138.64084405 23.26954191 128.984375 23.34375 C127.62855268 23.37524766 126.27276312 23.40818226 124.91700745 23.44242859 C121.28134104 23.51649192 117.64859375 23.524607 114.0123024 23.50841904 C111.7389795 23.49995899 109.46603699 23.50651819 107.19271851 23.51455688 C73.30188375 23.54182628 42.23150672 15.86828065 10 6 C8.07225726 5.41965434 6.14414554 4.84053215 4.21557617 4.26293945 C3.40070236 4.01872757 2.58582855 3.77451569 1.7462616 3.52290344 C1.16999527 3.35034531 0.59372894 3.17778717 0 3 C0 2.01 0 1.02 0 0 Z " fill="#000000" transform="translate(510,583)"/>
<path d="M0 0 C29.04 0 58.08 0 88 0 C93 19 93 19 93 22 C89.09593042 23.30135653 85.39052878 23.13921624 81.32177734 23.12939453 C80.43537064 23.13114685 79.54896393 23.13289917 78.63569641 23.13470459 C75.7024236 23.13911016 72.76921094 23.13619015 69.8359375 23.1328125 C67.80237822 23.13348579 65.76881902 23.13445603 63.73526001 23.13571167 C59.47323846 23.13718679 55.21123786 23.13503959 50.94921875 23.13037109 C45.47328721 23.12466668 39.9974046 23.1279585 34.52147484 23.13394356 C30.32318754 23.137548 26.12491194 23.13641125 21.9266243 23.13381577 C19.90670389 23.13314655 17.88678244 23.13397474 15.86686325 23.13629532 C13.05102449 23.13882071 10.23526632 23.13498319 7.41943359 23.12939453 C6.5768248 23.13141876 5.734216 23.13344299 4.86607361 23.13552856 C-0.88573604 23.11426396 -0.88573604 23.11426396 -2 22 C-2.02872308 20.6171891 -1.98702958 19.23274562 -1.9140625 17.8515625 C-1.87023437 17.01109375 -1.82640625 16.170625 -1.78125 15.3046875 C-1.7296875 14.42039062 -1.678125 13.53609375 -1.625 12.625 C-1.58117187 11.7484375 -1.53734375 10.871875 -1.4921875 9.96875 C-1.13006525 3.39019574 -1.13006525 3.39019574 0 0 Z " fill="#000000" transform="translate(287,109)"/>
<path d="M0 0 C0.77184631 -0.00014603 1.54369263 -0.00029205 2.33892822 -0.0004425 C4.85480702 0.00024641 7.37060897 0.00799026 9.88647461 0.01586914 C11.64481058 0.01773696 13.40314708 0.01915914 15.16148376 0.02015686 C19.76290351 0.02395341 24.3642911 0.03375889 28.96569824 0.04486084 C33.67170782 0.05513686 38.37772265 0.05966768 43.08374023 0.06469727 C52.29794698 0.07538403 61.51212998 0.09242562 70.72631836 0.11352539 C71.04445522 1.88335473 71.35542845 3.65447166 71.66381836 5.42602539 C71.92485352 6.90522461 71.92485352 6.90522461 72.19116211 8.41430664 C72.89650705 13.28993917 73.2803041 18.20736851 73.72631836 23.11352539 C42.70631836 23.11352539 11.68631836 23.11352539 -20.27368164 23.11352539 C-21.63023209 19.04387404 -20.67540003 15.65605019 -19.89868164 11.55102539 C-19.75946289 10.77049805 -19.62024414 9.9899707 -19.47680664 9.18579102 C-18.41939805 3.40495821 -18.41939805 3.40495821 -17.27368164 1.11352539 C-11.69057263 -0.17593027 -5.70607487 -0.02904352 0 0 Z " fill="#000000" transform="translate(158.273681640625,108.886474609375)"/>
<path d="M0 0 C0.75957001 0.00719055 1.51914001 0.0143811 2.30172729 0.02178955 C3.10181213 0.0214975 3.90189697 0.02120544 4.72622681 0.02090454 C7.3776423 0.02230077 10.02877871 0.03787564 12.68014526 0.05352783 C14.51574551 0.05725692 16.35134774 0.06010438 18.18695068 0.06210327 C23.02360508 0.06974793 27.86013979 0.08940353 32.69674683 0.11151123 C37.62999858 0.13195176 42.56326964 0.14110115 47.49655151 0.15118408 C57.18019791 0.17264866 66.8637554 0.20679461 76.54733276 0.24884033 C76.40844771 3.52000765 76.26002784 6.79067434 76.10983276 10.06134033 C76.07051636 10.99010986 76.03119995 11.91887939 75.99069214 12.87579346 C75.94879761 13.76846924 75.90690308 14.66114502 75.86373901 15.58087158 C75.8270813 16.40305176 75.79042358 17.22523193 75.75265503 18.07232666 C75.54733276 20.24884033 75.54733276 20.24884033 74.54733276 23.24884033 C46.82733276 23.24884033 19.10733276 23.24884033 -9.45266724 23.24884033 C-7.79424542 0.03093494 -7.79424542 0.03093494 0 0 Z " fill="#000000" transform="translate(154.45266723632813,63.75115966796875)"/>
<path d="M0 0 C43.89 0 87.78 0 133 0 C133 0.99 133 1.98 133 3 C131.72511719 3.25579834 130.45023438 3.51159668 129.13671875 3.77514648 C123.08999272 4.99024355 117.04471419 6.2124366 111 7.4375 C109.90131592 7.66009491 108.80263184 7.88268982 107.6706543 8.11203003 C90.56962182 11.58445128 73.52658496 15.26084768 56.53125 19.21850586 C46.69436223 21.49650255 37.25139454 23.12574976 27.125 23.25 C25.84882813 23.27578125 24.57265625 23.3015625 23.2578125 23.328125 C20 23 20 23 18.171875 21.6640625 C17.1226417 20.17415121 16.12045612 18.65136604 15.125 17.125 C11.43290319 11.69544587 6.93419211 8.09547335 1.57421875 4.4296875 C1.05472656 3.95789063 0.53523437 3.48609375 0 3 C0 2.01 0 1.02 0 0 Z " fill="#000000" transform="translate(225,583)"/>
<path d="M0 0 C1.21193527 -0.01929062 2.42387054 -0.03858124 3.67253113 -0.05845642 C9.21297754 -0.11635324 14.7532794 -0.16576912 20.29394531 -0.19628906 C23.21268934 -0.21406896 26.13046112 -0.24884012 29.04882812 -0.29882812 C32.58731664 -0.35934906 36.12490759 -0.38980707 39.66388893 -0.39946175 C41.65193852 -0.41207068 43.63973295 -0.45404453 45.62736511 -0.49668884 C55.39458691 -0.47461562 60.5610562 1.96476562 67.52075195 8.62280273 C68.13176758 9.35241211 68.7427832 10.08202148 69.37231445 10.83374023 C69.99879883 11.56850586 70.6252832 12.30327148 71.27075195 13.06030273 C71.84051758 13.76928711 72.4102832 14.47827148 72.99731445 15.20874023 C73.56708008 15.89709961 74.1368457 16.58545898 74.72387695 17.29467773 C75.99731445 19.20874023 75.99731445 19.20874023 75.99731445 22.20874023 C71.91471866 23.17990359 68.075117 23.35288913 63.88378906 23.38574219 C63.18722702 23.39231339 62.49066498 23.39888458 61.772995 23.40565491 C59.48188147 23.4252705 57.19083288 23.4370194 54.8996582 23.44702148 C54.11489168 23.45109701 53.33012516 23.45517254 52.52157784 23.45937157 C48.37376295 23.48017458 44.22598066 23.49450539 40.078125 23.50390625 C35.79507823 23.5150046 31.51254612 23.54945963 27.22968197 23.58907795 C23.93285648 23.61519641 20.63615516 23.62359342 17.33923531 23.62718773 C15.75995947 23.63206011 14.18068942 23.64369271 12.60151482 23.66222572 C10.39440455 23.68653423 8.18864801 23.68566918 5.98144531 23.67871094 C4.72633652 23.68457718 3.47122772 23.69044342 2.17808533 23.69648743 C-1.60448963 23.11645812 -2.71581195 22.21552236 -5.00268555 19.20874023 C-6.48706055 15.89624023 -6.48706055 15.89624023 -7.75268555 12.20874023 C-8.1806543 10.99186523 -8.60862305 9.77499023 -9.04956055 8.52124023 C-10.00268555 5.20874023 -10.00268555 5.20874023 -10.00268555 1.20874023 C-6.63034301 0.19806674 -3.5126362 0.05234564 0 0 Z " fill="#000000" transform="translate(282.002685546875,17.791259765625)"/>
<path d="M0 0 C1.65193076 0.01306265 3.30388871 0.02302368 4.95585632 0.03001404 C9.2950483 0.05668809 13.632589 0.12540201 17.97113037 0.20294189 C22.4017503 0.27466695 26.8326382 0.30654514 31.26367188 0.34179688 C39.951277 0.41677615 48.63754223 0.53617902 57.32421875 0.68359375 C56.75384566 5.53098797 56.17064621 9.8762121 54.51171875 14.49609375 C54.19589844 15.41003906 53.88007813 16.32398438 53.5546875 17.265625 C52.09011432 20.14362754 51.1262585 21.07939366 48.32421875 22.68359375 C45.733104 22.95818687 43.3887624 23.06371353 40.80175781 23.02416992 C40.05014877 23.024608 39.29853973 23.02504608 38.52415466 23.02549744 C36.04578457 23.02341141 33.56809532 23.00008978 31.08984375 22.9765625 C29.36920542 22.97096587 27.6485623 22.96669609 25.92791748 22.96369934 C21.40357214 22.95225583 16.87951663 22.92279295 12.35528564 22.8895874 C7.73689698 22.85887585 3.11846139 22.84519169 -1.5 22.83007812 C-10.55872095 22.79792274 -19.61722698 22.74673237 -28.67578125 22.68359375 C-28.67578125 18.18059068 -27.91544063 17.02994594 -25.48828125 13.37109375 C-24.89660156 12.46746094 -24.30492187 11.56382813 -23.6953125 10.6328125 C-23.02886719 9.65957031 -22.36242187 8.68632812 -21.67578125 7.68359375 C-21.15306641 6.48186523 -20.63035156 5.28013672 -20.09179688 4.04199219 C-15.76287175 -1.92650567 -6.60374268 -0.15279473 0 0 Z " fill="#000000" transform="translate(184.67578125,18.31640625)"/>
<path d="M0 0 C1.25695679 0.00539291 1.25695679 0.00539291 2.53930664 0.01089478 C3.41727402 0.01074875 4.29524139 0.01060272 5.19981384 0.01045227 C8.11630685 0.01115172 11.03273683 0.01894561 13.94921875 0.02676392 C15.96561142 0.02862798 17.98200454 0.03005194 19.99839783 0.03105164 C25.31671388 0.03487772 30.6350028 0.04470878 35.95330811 0.05575562 C41.37576938 0.06596779 46.79823502 0.07054884 52.22070312 0.07559204 C62.86850153 0.08633097 73.51627976 0.10340847 84.1640625 0.12442017 C84.1640625 1.11442017 84.1640625 2.10442017 84.1640625 3.12442017 C82.01079806 4.84397745 79.91137979 6.32950011 77.6015625 7.81192017 C77.01181641 8.20830688 76.42207031 8.6046936 75.81445312 9.01309204 C73.63121193 10.44395473 71.40083848 11.77837617 69.1640625 13.12442017 C68.11532959 13.78513016 67.06659668 14.44584015 65.98608398 15.12657166 C56.70450183 20.71970592 48.85105889 22.23387617 38.04296875 21.90567017 C36.56228235 21.89069527 35.08155552 21.87933318 33.60081482 21.87136841 C29.75785193 21.84124326 25.91742134 21.76304756 22.07543945 21.67373657 C18.13332355 21.59096894 14.19078657 21.55516597 10.24804688 21.51504517 C2.55224763 21.42999364 -5.14148634 21.29399697 -12.8359375 21.12442017 C-12.18757821 16.14996495 -11.19106593 11.91959813 -9.3359375 7.24942017 C-8.8925 6.11762329 -8.4490625 4.98582642 -7.9921875 3.81973267 C-6.07212363 -0.6560919 -4.7204813 0.00855347 0 0 Z " fill="#000000" transform="translate(286.8359375,155.87557983398438)"/>
<path d="M0 0 C1.76537109 -0.11891602 1.76537109 -0.11891602 3.56640625 -0.24023438 C7.09603174 -0.32559652 9.96900718 -0.26084182 13.375 0.6875 C15.77900885 3.03497502 17.25357659 5.27012177 18.82568359 8.23120117 C20.66905419 11.15369591 22.26727155 12.22847395 25.375 13.6875 C30.96500406 14.21988134 34.65661026 14.00041194 39.375 10.6875 C41.32210008 8.41246727 43.11228893 6.08019244 44.859375 3.6484375 C46.375 1.6875 46.375 1.6875 48.375 0.6875 C49.96947464 0.60349471 51.56740545 0.58022533 53.1640625 0.58984375 C54.10507812 0.59306641 55.04609375 0.59628906 56.015625 0.59960938 C57.00046875 0.60798828 57.9853125 0.61636719 59 0.625 C59.99257813 0.62951172 60.98515625 0.63402344 62.0078125 0.63867188 C64.4636016 0.65047855 66.91927104 0.666946 69.375 0.6875 C70.05061372 3.2270837 70.71565828 5.76868835 71.375 8.3125 C71.56578125 9.02535156 71.7565625 9.73820312 71.953125 10.47265625 C73.02078912 14.62892014 73.69482017 18.3566019 73.375 22.6875 C71.62060837 24.44189163 69.32002544 23.80732963 66.98329163 23.81192017 C66.2107756 23.80832489 65.43825958 23.80472961 64.64233398 23.80102539 C63.42779541 23.80124443 63.42779541 23.80124443 62.1887207 23.8014679 C59.49948492 23.80076854 56.81031751 23.7929751 54.12109375 23.78515625 C52.26164284 23.78329215 50.40219144 23.78186821 48.54273987 23.78086853 C43.63870904 23.77704271 38.73470764 23.76721188 33.83068848 23.75616455 C28.83048908 23.74595181 23.83028494 23.74137121 18.83007812 23.73632812 C9.01170579 23.72558967 -0.80664466 23.70851248 -10.625 23.6875 C-12.46496411 20.00757177 -12.35203877 15.68028094 -12.75 11.625 C-12.84925781 10.68849609 -12.94851563 9.75199219 -13.05078125 8.78710938 C-13.13972656 7.89701172 -13.22867187 7.00691406 -13.3203125 6.08984375 C-13.40297363 5.26991943 -13.48563477 4.44999512 -13.57080078 3.60522461 C-13.58868652 2.97237549 -13.60657227 2.33952637 -13.625 1.6875 C-10.91879555 -1.01870445 -3.62258171 0.11089536 0 0 Z " fill="#000000" transform="translate(297.625,63.3125)"/>
<path d="M0 0 C26.07 0 52.14 0 79 0 C84.625 12.375 84.625 12.375 86 19 C82.45489643 20.59104208 79.56107008 21.28503558 75.68505859 21.43334961 C74.12590225 21.496063 74.12590225 21.496063 72.5352478 21.56004333 C67.74639764 21.69055341 62.95811554 21.79580612 58.16796875 21.86499023 C55.66371658 21.91286375 53.15981585 21.98753418 50.65722656 22.09057617 C33.44192007 22.79056177 22.20662955 21.17838538 8.98419189 9.69876099 C5.78661147 6.96116041 2.39123245 4.49066105 -1 2 C-0.67 1.34 -0.34 0.68 0 0 Z " fill="#000000" transform="translate(158,156)"/>
</svg>
