<?xml version="1.0" encoding="UTF-8"?>
<svg version="1.1" xmlns="http://www.w3.org/2000/svg" width="800" height="800">
<path d="M0 0 C4.26372392 0.12208901 6.82093869 3.32602843 9.625 6.1875 C10.14989014 6.72068848 10.67478027 7.25387695 11.21557617 7.80322266 C32.05303263 29.52503575 39.72788041 55.15671191 39.30859375 84.76953125 C38.52833478 109.77990703 27.67172825 134.51067731 11 153 C10.35546875 153.78117188 9.7109375 154.56234375 9.046875 155.3671875 C7 157 7 157 4.7902832 156.81811523 C1.37193357 155.81584998 -1.59747374 154.26788468 -4.69140625 152.54296875 C-5.31853012 152.19873367 -5.94565399 151.8544986 -6.59178162 151.49983215 C-7.91222291 150.77265598 -9.23080348 150.04209191 -10.54760742 149.30834961 C-12.55427351 148.19207625 -14.56852599 147.09053647 -16.58398438 145.99023438 C-17.87027438 145.27951877 -19.1560978 144.56795793 -20.44140625 143.85546875 C-21.03941544 143.52927048 -21.63742462 143.2030722 -22.2535553 142.86698914 C-27.53418668 139.90167417 -30.8858146 136.45368527 -34.1875 131.4375 C-34.69667969 130.67308594 -35.20585937 129.90867187 -35.73046875 129.12109375 C-39.37642265 123.02954616 -39.01649173 114.84241493 -37.58853149 108.03982544 C-37.02850485 105.95591233 -36.42946639 103.88648365 -35.8203125 101.81640625 C-33.54957772 93.64468406 -31.82864016 85.42705663 -30.28125 77.08984375 C-30.05321686 75.86149811 -29.82518372 74.63315247 -29.59024048 73.36758423 C-28.65247109 68.27807606 -27.72675777 63.18641327 -26.80224609 58.09448242 C-22.2357469 33.03953816 -22.2357469 33.03953816 -19.40625 22.44140625 C-19.13065247 21.37042946 -19.13065247 21.37042946 -18.8494873 20.27781677 C-17.68015342 16.15923752 -16.29138675 13.73407072 -13 11 C-11.65035156 9.86691406 -11.65035156 9.86691406 -10.2734375 8.7109375 C-9.31695312 7.94007813 -8.36046875 7.16921875 -7.375 6.375 C-3.57052102 3.31726774 -3.57052102 3.31726774 0 0 Z " fill="#000000" transform="translate(217,434)"/>
<path d="M0 0 C3.19696598 1.60734704 5.29477563 4.15916931 7.61328125 6.8125 C8.08636719 7.3384375 8.55945313 7.864375 9.046875 8.40625 C10.42122406 9.94430269 11.78011509 11.48854581 13.11328125 13.0625 C13.75077805 13.78205872 14.38827484 14.50161743 15.04508972 15.24298096 C21.84937413 24.51910901 23.65972564 38.72722412 26.25 49.8125 C26.61856848 51.3662811 26.98778892 52.91990767 27.35762024 54.47338867 C28.31781081 58.51333857 29.2702269 62.5550775 30.22058105 66.59735107 C31.74932273 73.0926538 33.29120468 79.58485534 34.83112526 86.07751465 C35.3637729 88.32757345 35.89368869 90.57826043 36.42301941 92.82910156 C36.75032966 94.21550102 37.07766497 95.60189456 37.4050293 96.98828125 C37.68751022 98.18880127 37.96999115 99.38932129 38.2610321 100.6262207 C38.85568722 103.02387763 39.50394329 105.40859793 40.19245911 107.78100586 C42.16757053 114.81962522 42.61124118 122.53219556 39.72265625 129.33984375 C35.35604655 136.41185294 30.37052912 140.56495139 23.04296875 144.4453125 C21.89957031 145.05503906 20.75617188 145.66476563 19.578125 146.29296875 C18.38164917 146.92474201 17.18503314 147.55624982 15.98828125 148.1875 C13.63030524 149.43785532 11.27405579 150.69139499 8.91796875 151.9453125 C7.3553833 152.77119873 7.3553833 152.77119873 5.76123047 153.61376953 C3.00467015 155.07188154 3.00467015 155.07188154 0.11328125 157.0625 C-2.27734375 157.50390625 -2.27734375 157.50390625 -4.88671875 157.0625 C-23.22508869 140.75835321 -34.23979113 111.83583137 -36.88671875 88.0625 C-38.67045738 54.89794529 -29.68678255 30.48624717 -7.67578125 5.55859375 C-2.55403236 0.08460563 -2.55403236 0.08460563 0 0 Z " fill="#000000" transform="translate(334.88671875,17.9375)"/>
<path d="M0 0 C15.36343457 6.43120517 26.16048277 27.43334918 32.19091797 41.92041016 C42.18963779 67.62019756 40.4938657 97.38279696 29.625 122.5 C28.46400736 125.02473331 27.24375556 127.51517954 26 130 C25.43152344 131.16273438 24.86304688 132.32546875 24.27734375 133.5234375 C20.60759811 140.69574218 16.36885595 146.9890953 11 153 C10.07767578 154.15822266 10.07767578 154.15822266 9.13671875 155.33984375 C7 157 7 157 4.23168945 156.79248047 C0.78702595 155.94777414 -1.76472112 154.73081649 -4.84375 152.98046875 C-5.92527344 152.37009766 -7.00679687 151.75972656 -8.12109375 151.13085938 C-9.23613281 150.48955078 -10.35117188 149.84824219 -11.5 149.1875 C-13.17255859 148.24293945 -13.17255859 148.24293945 -14.87890625 147.27929688 C-17.93433905 145.54400041 -20.97145517 143.78172022 -24 142 C-24.98166138 141.43394043 -24.98166138 141.43394043 -25.9831543 140.85644531 C-29.65429677 138.6108944 -31.62122242 136.04526628 -33.8125 132.375 C-34.68841797 130.93253906 -34.68841797 130.93253906 -35.58203125 129.4609375 C-41.2763965 119.57815484 -37.45778047 107.97686074 -34.76953125 97.63769531 C-31.21161158 83.54817097 -28.84703515 69.22044209 -26.33618164 54.91479492 C-24.60629843 45.14289859 -22.76462182 35.42623033 -20.41796875 25.78125 C-20.22287216 24.95976974 -20.02777557 24.13828949 -19.82676697 23.29191589 C-18.25909809 17.09076797 -16.07981861 13.02817409 -11 9 C-10.04480469 8.18917969 -9.08960938 7.37835937 -8.10546875 6.54296875 C-5.43795436 4.31376225 -2.7392998 2.13992317 0 0 Z " fill="#000000" transform="translate(161,14)"/>
<path d="M0 0 C4.13569054 1.50650444 7.60368097 4.53322455 11.0625 7.1875 C11.68705078 7.64447266 12.31160156 8.10144531 12.95507812 8.57226562 C20.00456495 13.99668398 21.49149007 21.0676685 23.1875 29.4375 C23.39036621 30.4174292 23.59323242 31.3973584 23.80224609 32.40698242 C26.64011862 46.59117777 28.85969593 60.89799252 31.14526367 75.17944336 C31.31127579 76.2030899 31.4772879 77.22673645 31.64833069 78.28140259 C31.95989428 80.20302707 32.26686494 82.12540489 32.56809998 84.04867554 C33.48484865 89.67395287 34.76194397 95.08183964 36.36705017 100.55175781 C38.18786112 107.59463225 38.48039382 116.88395429 35.375 123.5625 C34.6027764 124.72152582 33.80881772 125.86620812 33 127 C32.6186792 127.53488037 32.2373584 128.06976074 31.84448242 128.62084961 C27.45379903 134.20906698 22.02961954 137.46938551 15.9375 141 C14.95716797 141.59683594 13.97683594 142.19367188 12.96679688 142.80859375 C11.54270508 143.64583984 11.54270508 143.64583984 10.08984375 144.5 C9.23253662 145.0053125 8.37522949 145.510625 7.49194336 146.03125 C4.48764395 147.19917986 3.02754387 147.01637386 0 146 C-17.39676234 131.16666788 -28.15492062 106.28202354 -31 84 C-32.74800105 53.81663457 -25.42067678 29.39130098 -6 6 C-5.30132813 5.09894531 -4.60265625 4.19789063 -3.8828125 3.26953125 C-2 1 -2 1 0 0 Z " fill="#000000" transform="translate(662,446)"/>
</svg>
