<?xml version="1.0" encoding="UTF-8"?>
<svg version="1.1" xmlns="http://www.w3.org/2000/svg" width="800" height="800">
<path d="M0 0 C7.32487833 0.24574 14.4132576 2.82322347 21.4140625 4.80273438 C28.9439201 6.86134821 35.87812523 7.93376447 43.67578125 8.37890625 C47.96578125 8.70890625 52.25578125 9.03890625 56.67578125 9.37890625 C56.67578125 63.82890625 56.67578125 118.27890625 56.67578125 174.37890625 C55.02578125 174.37890625 53.37578125 174.37890625 51.67578125 174.37890625 C51.69640625 175.32765625 51.71703125 176.27640625 51.73828125 177.25390625 C51.67578125 180.37890625 51.67578125 180.37890625 50.67578125 182.37890625 C46.44590889 183.28436468 42.10205985 183.57621065 37.80078125 184.00390625 C36.51276611 184.13579346 35.22475098 184.26768066 33.89770508 184.40356445 C20.82609638 185.66981925 7.80152734 185.68851318 -5.32421875 185.37890625 C-5.71383789 184.64067627 -6.10345703 183.90244629 -6.50488281 183.1418457 C-7.02791992 182.1643335 -7.55095703 181.18682129 -8.08984375 180.1796875 C-8.60321289 179.21458252 -9.11658203 178.24947754 -9.64550781 177.25512695 C-15.86670696 166.59603052 -25.06303776 160.78545533 -36.32421875 156.37890625 C-35.99421875 155.71890625 -35.66421875 155.05890625 -35.32421875 154.37890625 C-8.92421875 154.37890625 17.47578125 154.37890625 44.67578125 154.37890625 C44.67578125 141.17890625 44.67578125 127.97890625 44.67578125 114.37890625 C43.19078125 114.87390625 43.19078125 114.87390625 41.67578125 115.37890625 C40.27967541 115.50957158 38.87879756 115.59271621 37.47753906 115.64428711 C36.20659393 115.69468895 36.20659393 115.69468895 34.90997314 115.74610901 C33.53334503 115.7944413 33.53334503 115.7944413 32.12890625 115.84375 C30.16014955 115.9208904 28.1913998 115.99820832 26.22265625 116.07568359 C25.19333984 116.11473816 24.16402344 116.15379272 23.10351562 116.19403076 C-9.66042803 117.36745365 -9.66042803 117.36745365 -42.0625 122.05810547 C-46.92831788 123.03366873 -51.36004673 123.58125022 -56.32421875 123.37890625 C-55.72475965 115.84217522 -54.51998916 108.51442523 -53.07421875 101.09765625 C-52.85604492 99.96235474 -52.63787109 98.82705322 -52.41308594 97.65734863 C-51.9546131 95.27701212 -51.49396931 92.8970928 -51.03125 90.51757812 C-50.32113815 86.86305223 -49.61906303 83.20704666 -48.91796875 79.55078125 C-48.47052391 77.23298178 -48.0226236 74.91527018 -47.57421875 72.59765625 C-47.25855957 70.95404114 -47.25855957 70.95404114 -46.93652344 69.27722168 C-46.73961914 68.26857056 -46.54271484 67.25991943 -46.33984375 66.22070312 C-46.08122559 64.88694641 -46.08122559 64.88694641 -45.81738281 63.52624512 C-45.32421875 61.37890625 -45.32421875 61.37890625 -44.32421875 59.37890625 C-37.40815477 59.26186654 -30.67972233 59.71240305 -23.80078125 60.40234375 C-22.70854752 60.50808212 -21.61631378 60.6138205 -20.49098206 60.72276306 C-18.1702035 60.94755248 -15.84959363 61.17408939 -13.52914429 61.4022522 C-7.55424736 61.98916293 -1.57802523 62.5620938 4.3984375 63.1328125 C5.56040146 63.24382797 6.72236542 63.35484344 7.91954041 63.46922302 C20.16200033 64.6296041 32.40572506 65.55086565 44.67578125 66.37890625 C44.67578125 51.52890625 44.67578125 36.67890625 44.67578125 21.37890625 C43.02578125 21.70890625 41.37578125 22.03890625 39.67578125 22.37890625 C37.46836976 22.46434583 35.25862089 22.49665547 33.04956055 22.49243164 C32.08286186 22.49265068 32.08286186 22.49265068 31.09663391 22.49287415 C28.98105421 22.49218131 26.86556419 22.48441856 24.75 22.4765625 C23.27741036 22.47469608 21.8048201 22.47327324 20.33222961 22.47227478 C16.46725737 22.46846721 12.60232305 22.45865204 8.73736572 22.4475708 C4.78910841 22.43731875 0.84084493 22.43276904 -3.10742188 22.42773438 C-10.8463714 22.41702812 -18.58528975 22.39997294 -26.32421875 22.37890625 C-26.32421875 21.05890625 -26.32421875 19.73890625 -26.32421875 18.37890625 C-24.671875 16.88671875 -24.671875 16.88671875 -22.38671875 15.50390625 C-21.56816406 14.99085937 -20.74960938 14.4778125 -19.90625 13.94921875 C-19.05417969 13.43101563 -18.20210937 12.9128125 -17.32421875 12.37890625 C-10.84532118 8.4742603 -10.84532118 8.4742603 -5.76171875 3.00390625 C-3.32421875 0.37890625 -3.32421875 0.37890625 0 0 Z " fill="#000000" transform="translate(181.32421875,1.62109375)"/>
<path d="M0 0 C2.3685512 0.99468634 3.19847184 2.01461214 4.71386719 4.06958008 C8.00952184 8.12903896 11.72366769 10.45642061 16.22949219 13.01879883 C17.65686896 13.83608714 19.07901307 14.66259932 20.49511719 15.49926758 C21.11676758 15.8527124 21.73841797 16.20615723 22.37890625 16.5703125 C24.31089801 18.0923896 25.03271777 19.58699431 25.97949219 21.83129883 C24.97949219 22.83129883 24.97949219 22.83129883 22.46751404 22.95155334 C21.35054642 22.94933273 20.2335788 22.94711212 19.08276367 22.94482422 C17.82153183 22.94474869 16.56029999 22.94467316 15.260849 22.94459534 C13.87409425 22.93948793 12.4873399 22.93427192 11.10058594 22.92895508 C9.6895401 22.92709084 8.27849362 22.92566697 6.8674469 22.92466736 C3.14708683 22.92084262 -0.57323441 22.91101272 -4.2935791 22.89996338 C-8.75390572 22.88795344 -13.21424529 22.88334681 -17.67458344 22.87751007 C-24.45658525 22.86780093 -31.23850184 22.84864411 -38.02050781 22.83129883 C-38.02050781 37.68129883 -38.02050781 52.53129883 -38.02050781 67.83129883 C-30.45765756 67.231266 -22.89511187 66.62810264 -15.33300781 66.01879883 C-13.65839478 65.88399109 -13.65839478 65.88399109 -11.94995117 65.74645996 C2.50846137 64.57783475 16.94827316 63.34043949 31.36108398 61.6953125 C37.28182916 61.03384665 43.02085701 60.7071606 48.97949219 60.83129883 C50.89697333 67.04358568 52.13733296 73.33330789 53.36230469 79.71411133 C53.58143524 80.84654266 53.8005658 81.978974 54.02633667 83.14572144 C54.48676939 85.530677 54.94556914 87.91594833 55.40283203 90.30151367 C56.10364703 93.95189661 56.81276625 97.60060193 57.52246094 101.24926758 C57.9695803 103.570785 58.41621164 105.89239648 58.86230469 108.21411133 C59.07476837 109.30378204 59.28723206 110.39345276 59.50613403 111.5161438 C59.69988617 112.5342514 59.89363831 113.55235901 60.09326172 114.60131836 C60.26487823 115.49287628 60.43649475 116.3844342 60.61331177 117.30300903 C60.98218309 119.84987812 61.04498584 122.26174666 60.97949219 124.83129883 C55.36619978 124.47971032 49.87709347 123.8568955 44.3515625 122.78930664 C17.68969681 117.66931821 -9.97536612 117.90852057 -37.02050781 116.83129883 C-37.35050781 129.70129883 -37.68050781 142.57129883 -38.02050781 155.83129883 C-9.97050781 155.83129883 18.07949219 155.83129883 46.97949219 155.83129883 C46.97949219 156.82129883 46.97949219 157.81129883 46.97949219 158.83129883 C46.37363281 159.03883789 45.76777344 159.24637695 45.14355469 159.46020508 C34.28635339 163.45231448 26.40914056 169.17929741 19.97949219 178.83129883 C19.68494141 179.50539795 19.39039063 180.17949707 19.08691406 180.87402344 C17.92502391 183.27481894 16.9043822 184.97483487 14.97949219 186.83129883 C11.01177824 187.95815986 7.19700148 187.72065175 3.10449219 187.51879883 C1.93877686 187.49043945 0.77306152 187.46208008 -0.42797852 187.43286133 C-14.6698472 186.96650054 -28.86992837 185.44344443 -43.02050781 183.83129883 C-43.02050781 182.84129883 -43.02050781 181.85129883 -43.02050781 180.83129883 C-45.33050781 180.83129883 -47.64050781 180.83129883 -50.02050781 180.83129883 C-50.02050781 126.38129883 -50.02050781 71.93129883 -50.02050781 15.83129883 C-45.40050781 15.83129883 -40.78050781 15.83129883 -36.02050781 15.83129883 C-24.72655338 13.6059861 -14.23991676 8.86773159 -5.08300781 1.89379883 C-2.02050781 -0.16870117 -2.02050781 -0.16870117 0 0 Z " fill="#000000" transform="translate(311.0205078125,2.168701171875)"/>
<path d="M0 0 C9.89182306 -0.15282824 19.69571274 0.32280299 29.55883789 0.99389648 C31.17983684 1.10100471 32.80086016 1.20774451 34.42190552 1.31414795 C38.78310745 1.60154192 43.14393354 1.89429829 47.50469518 2.18828845 C52.08168211 2.49612857 56.658958 2.79961672 61.2361908 3.10377502 C68.90986419 3.61438988 76.58329527 4.12853005 84.2565918 4.64477539 C93.12636787 5.24147162 101.9965121 5.83243535 110.86687094 6.42040008 C119.4170266 6.98728048 127.96690287 7.55827374 136.51666069 8.13112068 C140.1500512 8.37448541 143.78353462 8.61638923 147.41710091 8.85711479 C151.68801025 9.14024466 155.95866369 9.42696496 160.22914505 9.71647644 C161.79640895 9.82214423 163.36375725 9.92656857 164.9311924 10.02966499 C167.06851262 10.17045074 169.20548215 10.31571984 171.34242249 10.46214294 C172.53861741 10.54233893 173.73481234 10.62253492 174.96725559 10.70516109 C177.43408503 10.94498259 179.63087799 11.30240579 182 12 C182 12.66 182 13.32 182 14 C181.030625 14.3403125 180.06125 14.680625 179.0625 15.03125 C158.94824298 22.24187797 129.08830015 33.8233997 119 54 C117.68733154 54.01981934 116.37466309 54.03963867 115.0222168 54.06005859 C52.06930981 52.63787093 52.06930981 52.63787093 -7.19335938 70.23046875 C-9 71 -9 71 -13 71 C-12.43478599 62.71681742 -11.13310643 54.7031638 -9.53125 46.5625 C-9.29088013 45.32000488 -9.05051025 44.07750977 -8.80285645 42.79736328 C-8.29770912 40.1916853 -7.79059907 37.58649581 -7.27978516 34.98193359 C-6.62566359 31.64631354 -5.97817752 28.30944907 -5.33298492 24.97209167 C-4.71404261 21.77258035 -4.09141496 18.57378863 -3.46875 15.375 C-3.23643677 14.17818604 -3.00412354 12.98137207 -2.76477051 11.74829102 C-2.54784546 10.64283936 -2.33092041 9.5373877 -2.10742188 8.3984375 C-1.91724487 7.42567871 -1.72706787 6.45291992 -1.53112793 5.45068359 C-1 3 -1 3 0 0 Z " fill="#000000" transform="translate(193,482)"/>
<path d="M0 0 C1.57048728 8.37023502 3.13607847 16.74135346 4.69381714 25.1139698 C5.41737517 29.00197584 6.1429148 32.88958988 6.87304688 36.77636719 C7.5780305 40.5296767 8.27772529 44.2839375 8.97381592 48.0389061 C9.23985993 49.46892047 9.50778447 50.89858635 9.77764893 52.32788467 C10.15628051 54.33504029 10.52811194 56.34334847 10.8984375 58.35205078 C11.11161621 59.49344513 11.32479492 60.63483948 11.54443359 61.81082153 C11.9890556 64.92338406 12.08362115 67.86090801 12 71 C7.87999889 70.44665679 4.57043034 69.50407088 0.8125 67.75 C-24.94369588 56.73437111 -54.33838314 54.98189057 -81.9765625 54.9375 C-84.10978466 54.92510805 -86.24300414 54.91224679 -88.3762207 54.89892578 C-92.62899256 54.87323706 -96.87723677 54.90137031 -101.12963867 54.95654297 C-103.11377731 54.94952392 -105.09791049 54.94065213 -107.08203125 54.9296875 C-107.99348907 54.95546875 -108.9049469 54.98125 -109.84402466 55.0078125 C-113.64073051 54.94980858 -116.03028744 54.91206367 -118.87136841 52.23988342 C-120.38823506 50.21990303 -121.69818962 48.16227714 -123 46 C-136.9785868 30.56743611 -159.38116736 20.11405851 -179 14 C-179 13.34 -179 12.68 -179 12 C-175.49703542 10.97315761 -172.09206807 10.71048624 -168.45631409 10.46214294 C-167.80053326 10.41636944 -167.14475243 10.37059594 -166.46909946 10.32343537 C-164.27332363 10.17107506 -162.07723178 10.02389538 -159.88110352 9.87670898 C-158.30554689 9.76848693 -156.73001127 9.65995879 -155.15449524 9.55114746 C-150.8732334 9.25646081 -146.59167005 8.96639526 -142.31002164 8.67738605 C-138.72958498 8.43528323 -135.14930423 8.19091792 -131.56902164 7.946549 C-123.11239657 7.36937957 -114.65552521 6.79592521 -106.19848633 6.22485352 C-97.49713154 5.63722755 -88.79618633 5.04380435 -80.095429 4.44740242 C-72.61177265 3.93461319 -65.12788688 3.42527484 -57.64380783 2.91869217 C-53.1803963 2.616551 -48.7170768 2.31319065 -44.25396919 2.00658989 C-40.04766113 1.71779865 -35.84107959 1.43336354 -31.63426018 1.1521225 C-30.09962167 1.04883068 -28.56508047 0.94407964 -27.03065491 0.83767128 C-18.01036159 0.21320099 -9.04481487 -0.13914632 0 0 Z " fill="#000000" transform="translate(684,490)"/>
<path d="M0 0 C0 0.66 0 1.32 0 2 C-1.84227235 3.4261781 -3.75287544 4.76435547 -5.6875 6.0625 C-6.26894775 6.45808105 -6.85039551 6.85366211 -7.44946289 7.26123047 C-9.88769887 8.9190605 -12.33621926 10.5606696 -14.79492188 12.18798828 C-22.6486639 17.38660515 -29.29637401 22.04335235 -33.875 30.4375 C-34.926875 31.7059375 -34.926875 31.7059375 -36 33 C-42.56582619 33.51628719 -48.82312975 32.37041513 -55.28125 31.25 C-56.33534058 31.07243164 -57.38943115 30.89486328 -58.47546387 30.71191406 C-61.81804744 30.14739655 -65.15900597 29.5738422 -68.5 29 C-70.77594009 28.61398398 -73.05198086 28.22856103 -75.328125 27.84375 C-80.88660015 26.90269377 -86.4437717 25.95422765 -92 25 C-92.0868329 21.541824 -92.14033282 18.08392656 -92.1875 14.625 C-92.21263672 13.64015625 -92.23777344 12.6553125 -92.26367188 11.640625 C-92.27333984 10.69960938 -92.28300781 9.75859375 -92.29296875 8.7890625 C-92.3086792 7.91975098 -92.32438965 7.05043945 -92.34057617 6.15478516 C-92.22818604 5.44370605 -92.1157959 4.73262695 -92 4 C-88.9446907 1.96312713 -88.160136 1.73063276 -84.68847656 1.58935547 C-83.81222626 1.5494751 -82.93597595 1.50959473 -82.03317261 1.46850586 C-81.0786319 1.4350708 -80.12409119 1.40163574 -79.140625 1.3671875 C-78.13943634 1.32553467 -77.13824768 1.28388184 -76.10671997 1.2409668 C-72.82146351 1.10836565 -69.53588469 0.99091229 -66.25 0.875 C-65.13651184 0.83264221 -64.02302368 0.79028442 -62.87579346 0.74664307 C-41.91244184 -0.049281 -20.97536212 -0.23889934 0 0 Z " fill="#000000" transform="translate(682,581)"/>
<path d="M0 0 C0.91344177 -0.0007251 1.82688354 -0.0014502 2.76800537 -0.00219727 C5.32458749 -0.00196544 7.8809539 0.00655721 10.4375 0.01953125 C11.57458908 0.02132133 11.57458908 0.02132133 12.73464966 0.02314758 C17.88303372 0.07053372 17.88303372 0.07053372 19 1.1875 C19.04092937 3.52047433 19.04241723 5.85455225 19 8.1875 C11.65691147 10.41213325 4.31160878 12.62931651 -3.03657055 14.83707428 C-6.448751 15.86251612 -9.86012641 16.89048549 -13.26977539 17.92431641 C-17.19190585 19.11341303 -21.11730941 20.29135544 -25.04296875 21.46875 C-26.26396774 21.84060425 -27.48496674 22.2124585 -28.7429657 22.59558105 C-29.8837709 22.93593384 -31.02457611 23.27628662 -32.19995117 23.62695312 C-33.20144699 23.9289563 -34.20294281 24.23095947 -35.23478699 24.54211426 C-38.71860287 25.35521802 -41.65705234 25.85743845 -44.921875 24.22875977 C-45.52515625 23.78330811 -46.1284375 23.33785645 -46.75 22.87890625 C-47.43521729 22.38310059 -48.12043457 21.88729492 -48.82641602 21.37646484 C-49.54369873 20.83973145 -50.26098145 20.30299805 -51 19.75 C-52.50852543 18.64893195 -54.01764719 17.54868048 -55.52734375 16.44921875 C-56.27612793 15.89927246 -57.02491211 15.34932617 -57.79638672 14.78271484 C-59.84202813 13.30185721 -61.91001788 11.86855279 -64.00390625 10.45703125 C-64.60783203 10.04960693 -65.21175781 9.64218262 -65.83398438 9.22241211 C-67.47260768 8.12282181 -69.11320087 7.0261687 -70.75390625 5.9296875 C-71.49511719 5.35476563 -72.23632812 4.77984375 -73 4.1875 C-73 3.5275 -73 2.8675 -73 2.1875 C-48.6702018 1.02170363 -24.3618983 -0.01934892 0 0 Z " fill="#000000" transform="translate(275,573.8125)"/>
<path d="M0 0 C1.58984375 1.43359375 1.58984375 1.43359375 2.9375 3.4375 C7.94039035 9.77298868 15.08991913 13.09077585 22 17 C22.99 17.66 23.98 18.32 25 19 C25 19.66 25 20.32 25 21 C-2.95570502 23.00598189 -30.98702465 23.17114798 -59 23 C-58.44880349 17.76363313 -57.51095593 13.06723024 -56 8 C-48.99016222 6.85405152 -41.97915226 5.71549595 -34.96728516 4.58203125 C-32.58289519 4.19570627 -30.19877695 3.8077002 -27.81494141 3.41796875 C-24.38514423 2.85753503 -20.95440993 2.30318732 -17.5234375 1.75 C-15.92935562 1.48751465 -15.92935562 1.48751465 -14.30307007 1.21972656 C-4.38973644 -0.36712521 -4.38973644 -0.36712521 0 0 Z " fill="#000000" transform="translate(645,430)"/>
<path d="M0 0 C1.95956843 0.28496621 3.91920348 0.56947469 5.87890625 0.85351562 C10.6283876 1.54291015 15.37692825 2.23846592 20.125 2.9375 C21.36386292 7.07842371 22.38811551 10.59609407 22.125 14.9375 C18.18776427 15.67709375 14.51611756 16.04721388 10.51293945 15.97509766 C8.89383415 15.94979477 8.89383415 15.94979477 7.24201965 15.92398071 C5.50766914 15.8881337 5.50766914 15.8881337 3.73828125 15.8515625 C1.92084663 15.81970352 1.92084663 15.81970352 0.06669617 15.78720093 C-2.50123903 15.74098046 -5.06912676 15.69205565 -7.63696289 15.640625 C-11.50332767 15.56367763 -15.36976708 15.49594739 -19.23632812 15.4296875 C-32.80083102 15.18368636 -46.33432449 14.78993962 -59.875 13.9375 C-59.875 13.2775 -59.875 12.6175 -59.875 11.9375 C-57.59310832 10.26591664 -55.31556053 8.71140691 -52.9375 7.1875 C-47.51713676 3.73922301 -47.51713676 3.73922301 -42.3671875 -0.08984375 C-32.00709733 -8.46063904 -12.28500207 -1.81030054 0 0 Z " fill="#000000" transform="translate(270.875,427.0625)"/>
</svg>
