<?xml version="1.0" encoding="UTF-8"?>
<svg version="1.1" xmlns="http://www.w3.org/2000/svg" width="800" height="800">
<path d="M0 0 C1.310755 -0.00310684 2.62151001 -0.00621368 3.97198486 -0.00941467 C5.44787621 -0.00759976 6.92376734 -0.0055937 8.3996582 -0.00341797 C9.95782496 -0.00447952 11.51599151 -0.00586676 13.07415771 -0.0075531 C17.37568888 -0.01040922 21.67718398 -0.00586766 25.97871017 0.0006218 C28.69878943 0.00439224 31.41886521 0.00646316 34.13894653 0.00808716 C66.701616 0.03082732 99.26279612 0.25151504 131.82413101 0.53556061 C135.42118915 0.56664179 139.01825571 0.59651292 142.61532593 0.62615967 C191.94263044 1.03819461 191.94263044 1.03819461 215.01293945 2.12939453 C215.13374374 3.38871544 215.13374374 3.38871544 215.25698853 4.67347717 C217.78729136 32.15970572 217.78729136 32.15970572 226.05981445 58.33251953 C227.4694828 62.46908731 227.73579514 65.57759854 225.8684082 69.58642578 C218.03890726 80.64307465 207.51964926 87.33487315 196.01293945 94.12939453 C192.83954163 96.01417967 189.67507337 97.913288 186.51293945 99.81689453 C185.74715576 100.2685498 184.98137207 100.72020508 184.19238281 101.18554688 C180.79612895 103.22967537 178.15241754 104.98046386 175.41918945 107.89892578 C169.64693809 113.24950294 159.53055713 111.13470191 152.20043945 110.87939453 C151.52843506 110.85606049 150.85643066 110.83272644 150.1640625 110.8086853 C90.50275494 108.65906692 26.19074811 96.64623216 -25.98706055 66.12939453 C-25.36968846 62.5632584 -23.90682653 60.43004225 -21.73706055 57.56689453 C-11.376107 43.02334293 -9.80189703 27.05745172 -7.98852539 9.75219727 C-7.87202637 8.65335205 -7.75552734 7.55450684 -7.63549805 6.42236328 C-7.53414551 5.42744873 -7.43279297 4.43253418 -7.32836914 3.4074707 C-6.65656543 -1.07650673 -4.03504211 0.00281482 0 0 Z " fill="#000000" transform="translate(473.987060546875,507.87060546875)"/>
<path d="M0 0 C0.10022461 0.90129639 0.20044922 1.80259277 0.30371094 2.73120117 C0.68899675 6.14133008 1.08553838 9.54978633 1.48925781 12.95776367 C1.6603051 14.4204742 1.82711808 15.88368742 1.98925781 17.34741211 C3.65858074 32.36616619 6.47523542 47.81276157 16.9375 59.4375 C19 62 19 62 19.0625 63.90234375 C17.36200094 67.25957902 14.295575 68.48252082 11.0625 70.125 C10.31452148 70.51042969 9.56654297 70.89585937 8.79589844 71.29296875 C-42.3625538 96.84138889 -101.47399903 107.74609563 -158.125 109.6875 C-158.81853577 109.7125058 -159.51207153 109.7375116 -160.22662354 109.76327515 C-162.21594552 109.83256135 -164.205634 109.8910635 -166.1953125 109.94921875 C-167.34016113 109.98362061 -168.48500977 110.01802246 -169.66455078 110.0534668 C-179.82462233 109.89060223 -179.82462233 109.89060223 -183.76171875 105.83984375 C-188.32441891 101.53410432 -193.37144723 98.63470988 -198.8125 95.5625 C-206.55691299 91.08536126 -214.01452519 86.61332797 -221 81 C-221.7425 80.41992188 -222.485 79.83984375 -223.25 79.2421875 C-227.64207277 75.64133372 -232.19295205 71.52976423 -234 66 C-233.65965228 60.49437506 -231.9737273 55.69691992 -230.125 50.5625 C-224.66341618 34.65669243 -223.27046316 18.68233713 -222 2 C-196.50699009 0.859149 -171.0046804 0.68112143 -145.49053574 0.46757126 C-141.90925809 0.43726097 -138.3279961 0.40548233 -134.74673462 0.37332153 C-89.83073059 -0.02746594 -44.91743172 -0.12309358 0 0 Z " fill="#000000" transform="translate(411,497)"/>
<path d="M0 0 C1.74833004 0.0037422 3.49666221 0.00658344 5.24499512 0.00857544 C9.78881895 0.01611705 14.33250959 0.03568095 18.87628174 0.0579834 C23.53599243 0.07864912 28.19572519 0.08762092 32.85546875 0.09765625 C41.95578685 0.11893839 51.05600724 0.15295586 60.15625 0.1953125 C60.23043655 1.16066673 60.23043655 1.16066673 60.30612183 2.14552307 C61.29512774 14.8702742 62.43267939 27.50091332 64.28125 40.1328125 C67.30691026 60.89399197 67.30691026 60.89399197 64.59375 66.3203125 C63.789375 67.2690625 62.985 68.2178125 62.15625 69.1953125 C61.72828125 69.71351563 61.3003125 70.23171875 60.859375 70.765625 C52.62225135 79.89439605 40.69625007 86.04070685 30.16796875 92.15185547 C27.39485152 93.77486365 24.85803352 95.43538092 22.3515625 97.453125 C20.15625 99.1953125 20.15625 99.1953125 18.15625 99.1953125 C17.97449219 99.81277344 17.79273438 100.43023437 17.60546875 101.06640625 C15.89904553 106.81573987 14.08970274 112.51836616 12.15625 118.1953125 C7.42508985 119.77236588 4.41249295 118.28728813 0.15625 116.1953125 C-0.87628906 115.60234375 -1.90882813 115.009375 -2.97265625 114.3984375 C-17.7522125 105.99140891 -35.18896639 102.87057155 -51.84375 100.1953125 C-52.55498243 86.52509909 -50.36178206 73.72816455 -47.90625 60.3203125 C-47.34209795 57.17887382 -46.78190572 54.03677989 -46.22520447 50.89401245 C-45.8808203 48.95635313 -45.53169175 47.01952819 -45.17677307 45.08377075 C-43.76127351 37.22708705 -42.86379404 29.38492821 -42.52734375 21.40625 C-42.48544922 20.44589844 -42.44355469 19.48554687 -42.40039062 18.49609375 C-42.36107422 17.53058594 -42.32175781 16.56507812 -42.28125 15.5703125 C-42.23806641 14.56613281 -42.19488281 13.56195313 -42.15039062 12.52734375 C-42.04565141 10.08342867 -41.94347744 7.63943633 -41.84375 5.1953125 C-28.87411302 -0.87827677 -14.04568126 -0.08994489 0 0 Z " fill="#000000" transform="translate(306.84375,89.8046875)"/>
<path d="M0 0 C32.67 0 65.34 0 99 0 C99.99 9.57 100.98 19.14 102 29 C103.06923689 35.35466925 104.18104772 41.63975459 105.5 47.9375 C105.79940531 49.4209766 106.09757521 50.90470305 106.39453125 52.38867188 C107.50341011 57.89358277 108.63446713 63.39017127 109.87792969 68.86645508 C111.33701871 75.318823 112.37991337 81.19341378 112.25 87.8125 C112.24484375 88.50408203 112.2396875 89.19566406 112.234375 89.90820312 C112.15673389 94.84326611 112.15673389 94.84326611 111 96 C109.17706363 96.11446345 107.35333928 96.22162813 105.52807617 96.28955078 C92.89676673 96.76334333 82.73374213 98.51372009 71.87109375 105.3515625 C68.34147923 107.37808947 64.88604602 108.48868079 60.9609375 109.4921875 C58.94118508 109.94244727 58.94118508 109.94244727 57 111 C54.3276379 111.13415472 51.67749512 111.04318541 49 111 C48.74605469 110.40832031 48.49210937 109.81664062 48.23046875 109.20703125 C46.37590221 104.94916874 44.40977263 100.97612484 42 97 C42 96.34 42 95.68 42 95 C41.26136719 94.73058594 40.52273437 94.46117187 39.76171875 94.18359375 C37.09550005 93.04092859 35.12982349 91.7888849 32.8125 90.0625 C28.81743545 87.17817089 24.7202598 84.62462212 20.47558594 82.13500977 C10.50750444 76.2616273 -0.56421356 69.64234132 -6 59 C-6.3215332 56.3503418 -6.3215332 56.3503418 -6.23828125 53.51171875 C-6.21072754 52.45774902 -6.18317383 51.4037793 -6.15478516 50.31787109 C-5.89780361 44.80938652 -5.59868885 39.31190354 -5.1875 33.8125 C-5.10056885 32.64009766 -5.0136377 31.46769531 -4.92407227 30.25976562 C-4.11774536 20.15324614 -3.22470916 9.67412749 0 0 Z " fill="#000000" transform="translate(134,89)"/>
</svg>
