<?xml version="1.0" encoding="UTF-8"?>
<svg version="1.1" xmlns="http://www.w3.org/2000/svg" width="800" height="800">
<path d="M0 0 C5.46612282 -0.57876595 8.42949987 1.12212362 12.8046875 4.3515625 C17.52969004 8.17599276 22.09656535 12.17337624 26.5625 16.296875 C28.66357462 18.22701474 30.81269144 20.07378762 32.9921875 21.9140625 C34.28741142 23.07677867 35.57863672 24.24395534 36.8671875 25.4140625 C37.52968506 25.98366699 38.19218262 26.55327148 38.87475586 27.14013672 C45.96825298 34.00127101 46.94660084 41.72705042 48.3046875 51.0390625 C48.54594499 52.52911551 48.79006816 54.01870747 49.03710938 55.5078125 C49.68590881 59.47112778 50.28708242 63.44003961 50.8671875 67.4140625 C51.04198135 68.47096283 51.21677521 69.52786316 51.39686584 70.61679077 C51.90727939 74.73775547 51.97897387 78.70771649 51.9296875 82.8515625 C51.92517578 83.58310547 51.92066406 84.31464844 51.91601562 85.06835938 C51.90436898 86.85029669 51.88643941 88.63219113 51.8671875 90.4140625 C23.8519413 90.43738789 -4.16330345 90.4550399 -32.1785574 90.46587467 C-45.18552919 90.4710384 -58.19249496 90.47808254 -71.19946289 90.48950195 C-82.53185485 90.49944646 -93.86424245 90.50591537 -105.19663864 90.50815099 C-111.20108426 90.5094585 -117.2055174 90.51254685 -123.20995903 90.51979256 C-128.85444219 90.5265491 -134.49890766 90.52868021 -140.14339447 90.52717018 C-142.22156177 90.52744668 -144.29972963 90.52945395 -146.37789345 90.53326797 C-149.20205999 90.53819952 -152.02615862 90.53706279 -154.85032654 90.53431702 C-156.1007881 90.53868628 -156.1007881 90.53868628 -157.37651151 90.54314381 C-163.01869129 90.52818371 -163.01869129 90.52818371 -164.1328125 89.4140625 C-164.23251091 87.66640798 -164.26249295 85.9145522 -164.2578125 84.1640625 C-164.26039063 83.21015625 -164.26296875 82.25625 -164.265625 81.2734375 C-164.13847673 78.53601013 -163.67139767 76.09474776 -163.1328125 73.4140625 C-162.48495303 65.66751426 -162.13132069 59.23189776 -166.84375 52.76953125 C-168.11079147 51.28343019 -168.11079147 51.28343019 -170.1328125 50.4140625 C-170.1328125 49.4240625 -170.1328125 48.4340625 -170.1328125 47.4140625 C-165.60527136 45.0933815 -161.05940799 42.81438602 -156.4921875 40.57275391 C-154.98986083 39.83495979 -153.48961435 39.09290357 -151.9921875 38.34521484 C-140.29145334 32.55172633 -128.18716777 28.21794687 -115.8203125 24.1015625 C-115.05730835 23.84685181 -114.2943042 23.59214111 -113.50817871 23.32971191 C-85.39043326 13.98735935 -85.39043326 13.98735935 -74.8203125 13.9765625 C-55.76902509 13.42811318 -36.87003819 8.0104805 -18.36254883 3.73779297 C-16.49312622 3.30684326 -16.49312622 3.30684326 -14.5859375 2.8671875 C-13.48411133 2.61098633 -12.38228516 2.35478516 -11.24707031 2.09082031 C-7.51401496 1.27959191 -3.74770843 0.72757709 0 0 Z " fill="#000000" transform="translate(634.1328125,430.5859375)"/>
<path d="M0 0 C0.45963135 1.22541504 0.9192627 2.45083008 1.39282227 3.71337891 C2.01283968 5.34290433 2.63322032 6.97229159 3.25390625 8.6015625 C3.70521912 9.80921265 3.70521912 9.80921265 4.16564941 11.04125977 C6.40027809 16.87653598 9.04907272 21.76025453 12.71484375 26.8359375 C14 29 14 29 14 33 C-26.21433533 58.75444016 -82.56554272 70.81042791 -129.26220703 76.48144531 C-139.83777816 77.84713901 -149.45018381 80.514201 -158.5 86.25 C-164.48404255 90 -164.48404255 90 -169 90 C-170.78125 87.55078125 -170.78125 87.55078125 -172.5 84.3125 C-176.27377428 77.28813378 -180.14176784 72.53794333 -186.625 67.875 C-187.27380127 67.40126953 -187.92260254 66.92753906 -188.59106445 66.43945312 C-193.62544793 62.82838759 -198.85248225 59.6426915 -204.1875 56.5 C-213.00872092 51.27274881 -223.63074214 44.66139528 -228 35 C-228.56976986 29.42155552 -227.31320948 24.86034625 -225.625 19.625 C-224.22625757 15.18480601 -222.90932093 10.78003712 -221.91943359 6.22802734 C-221.74544037 5.4319809 -221.57144714 4.63593445 -221.3921814 3.81576538 C-221.26276154 3.21656281 -221.13334167 2.61736023 -221 2 C-195.6918607 0.8029532 -170.36681523 0.67686855 -145.03553009 0.46757126 C-141.41118825 0.43728009 -137.78686217 0.40549979 -134.16253662 0.37332153 C-89.44122426 -0.02133423 -44.72271369 -0.12483206 0 0 Z " fill="#000000" transform="translate(410,520)"/>
<path d="M0 0 C62.67069649 -0.21446412 62.67069649 -0.21446412 93 1 C93.16435547 2.01308228 93.16435547 2.01308228 93.33203125 3.04663086 C95.24693155 14.67712034 97.22723291 26.24836665 100.11328125 37.6796875 C100.38517776 38.76126884 100.38517776 38.76126884 100.66256714 39.86470032 C101.55033153 43.37270625 102.46280079 46.87209435 103.40820312 50.36499023 C105.7997645 59.47017724 106.44444719 67.64149894 106 77 C104.89487061 77.04576172 103.78974121 77.09152344 102.65112305 77.13867188 C89.69628536 77.71591979 78.86838282 79.35529059 68.125 87.0625 C61.82975815 90.96554995 55.39873927 92.89295129 48 92 C44.24787647 88.22068717 43.65241725 83.30962906 42.453125 78.2890625 C38.13394312 68.51284975 26.21548428 64.81840034 17.22265625 60.38671875 C9.69361327 56.60111931 2.35783215 52.60386882 -4 47 C-4 46.34 -4 45.68 -4 45 C-4.66 45 -5.32 45 -6 45 C-8.93432255 41.50138465 -9.51579397 38.27808405 -9.3515625 33.76171875 C-8.21160207 24.80669625 -5.05744442 16.09468862 -2.35546875 7.50390625 C-2.12742554 6.77659302 -1.89938232 6.04927979 -1.66442871 5.29992676 C-1.11033146 3.53306096 -0.5552692 1.76649784 0 0 Z " fill="#000000" transform="translate(136,97)"/>
<path d="M0 0 C5.89207608 3.54791678 11.10461844 8.01173122 16.125 12.6875 C19.16432469 15.51522614 21.89567492 17.6239241 25.625 19.4375 C35.67549717 24.68432039 40.6280122 35.65529658 44 46 C45.63023631 51.60263102 46.85435724 57.28181057 48 63 C48.226875 64.07378906 48.45375 65.14757812 48.6875 66.25390625 C49.72676424 71.67395793 50.08587561 76.84144499 50.046875 82.36328125 C50.04010742 83.61020752 50.03333984 84.85713379 50.02636719 86.1418457 C50.01331543 87.55663208 50.01331543 87.55663208 50 89 C19.6600298 90.24807126 -10.6309315 91.39634363 -41 91 C-42.5507735 86.54872011 -43.34150972 82.64000118 -43.75 77.9375 C-45.60383464 60.07309127 -49.5688354 42.13226492 -55.17089844 25.0769043 C-56.42683679 21.22184787 -57.12310907 18.04077142 -57 14 C-56.26064209 13.90501221 -55.52128418 13.81002441 -54.75952148 13.7121582 C-29.65055454 10.81172738 -29.65055454 10.81172738 -7.1484375 0.0390625 C-4.26615921 -1.35491209 -3.00249969 -1.03914997 0 0 Z " fill="#000000" transform="translate(312,8)"/>
</svg>
