<?xml version="1.0" encoding="UTF-8"?>
<svg version="1.1" xmlns="http://www.w3.org/2000/svg" width="800" height="800">
<path d="M0 0 C0.67218507 2.74875682 1.33792435 5.49880726 2 8.25 C2.19078125 9.02730469 2.3815625 9.80460937 2.578125 10.60546875 C2.84882813 11.73662109 2.84882813 11.73662109 3.125 12.890625 C3.29257812 13.58188477 3.46015625 14.27314453 3.6328125 14.98535156 C4 17 4 17 4 21 C4.76341705 20.99555878 5.52683411 20.99111755 6.31338501 20.98654175 C13.5224191 20.94639885 20.73139866 20.91598204 27.94051552 20.89637566 C31.64642751 20.88595683 35.35224681 20.87183257 39.05810547 20.84912109 C42.63723024 20.82732461 46.21626608 20.81541708 49.79545212 20.81024551 C51.15813979 20.80656194 52.52082282 20.79936888 53.88347244 20.78853989 C55.79808012 20.7739353 57.71277805 20.77318231 59.62744141 20.77294922 C60.71554108 20.768508 61.80364075 20.76406677 62.92471313 20.75949097 C66.27168575 21.02124773 68.91423174 21.68262775 72 23 C73.50732422 25.64208984 73.50732422 25.64208984 74.5546875 28.9609375 C74.94140625 30.15460937 75.328125 31.34828125 75.7265625 32.578125 C76.10554688 33.83109375 76.48453125 35.0840625 76.875 36.375 C77.2771875 37.62023438 77.679375 38.86546875 78.09375 40.1484375 C81 49.32190689 81 49.32190689 81 54 C57.24 54 33.48 54 9 54 C9 60.6 9 67.2 9 74 C33.75 74 58.5 74 84 74 C91 102 91 102 91 106 C63.61 106 36.22 106 8 106 C7.67 110.29 7.34 114.58 7 119 C6.34 121.97 5.68 124.94 5 128 C34.37 128 63.74 128 94 128 C87.16050406 141.67899188 74.06016228 149.1846317 61 156 C60.09403076 156.50974869 59.18806152 157.01949738 58.25463867 157.54469299 C54.80334486 159.08793406 52.65149847 159.36470922 48.90283203 159.34057617 C47.72206085 159.34034958 46.54128967 159.34012299 45.32473755 159.33988953 C43.43535965 159.31666374 43.43535965 159.31666374 41.5078125 159.29296875 C40.20673553 159.28872391 38.90565857 159.28447906 37.56515503 159.28010559 C34.12254237 159.26870479 30.68031533 159.23927974 27.237854 159.20599365 C23.71851822 159.17518917 20.19911953 159.1615782 16.6796875 159.14648438 C9.78630091 159.11440462 2.89316902 159.06326684 -4 159 C-4.14783936 159.77956055 -4.29567871 160.55912109 -4.44799805 161.36230469 C-4.97802624 163.8950002 -5.69813007 165.92358628 -6.8125 168.25 C-7.12832031 168.93578125 -7.44414062 169.6215625 -7.76953125 170.328125 C-9 172 -9 172 -10.77734375 172.85546875 C-13.81453744 173.05296641 -15.92874 172.17085214 -18.75 171.0625 C-19.73484375 170.68222656 -20.7196875 170.30195313 -21.734375 169.91015625 C-22.48203125 169.60980469 -23.2296875 169.30945313 -24 169 C-23.42307009 161.48741447 -22.13507456 154.24965298 -20.625 146.875 C-19.72861821 142.25391342 -18.8583739 137.6282868 -18 133 C-17.8261377 132.07541992 -17.65227539 131.15083984 -17.47314453 130.19824219 C-11.56665159 97.31610146 -13.94407407 62.6252727 -19.36669922 29.86376953 C-19.99933493 26.00405757 -20.59062222 22.1434959 -21.15625 18.2734375 C-21.31673828 17.17950684 -21.47722656 16.08557617 -21.64257812 14.95849609 C-22.08980829 11.25662782 -22.14888325 7.72208131 -22 4 C-14.79738151 1.34640372 -7.67736891 -0.15622553 0 0 Z " fill="#000000" transform="translate(280,16)"/>
<path d="M0 0 C2.60290527 -0.38095093 2.60290527 -0.38095093 5.94335938 -0.38818359 C7.81670959 -0.40236832 7.81670959 -0.40236832 9.72790527 -0.4168396 C11.0998567 -0.41146539 12.47180526 -0.40531133 13.84375 -0.3984375 C15.25183259 -0.40045921 16.65991415 -0.40337146 18.06799316 -0.40713501 C21.02720047 -0.41156543 23.98613668 -0.40511237 26.9453125 -0.39111328 C30.71330519 -0.3741458 34.48065093 -0.38377766 38.24861908 -0.40183067 C41.16227947 -0.41275701 44.07579089 -0.40917991 46.98945618 -0.4014473 C48.37673521 -0.39946305 49.76402833 -0.40184126 51.15129089 -0.40888596 C59.27733759 -0.44105332 66.37631342 0.05656997 74 3 C74.19860556 10.01498372 73.45754549 16.52080448 72.28515625 23.4296875 C72.10995956 24.50066681 71.93476288 25.57164612 71.7542572 26.67507935 C71.19707374 30.07620359 70.63050379 33.47566747 70.0625 36.875 C69.49920131 40.26735824 68.93806767 43.66003548 68.38145447 47.05349731 C68.03612555 49.15678269 67.68690801 51.25943489 67.33302307 53.36129761 C61.89050281 86.37727953 65.08768462 119.84058199 72.01806641 152.35595703 C72.27378418 153.55720215 72.52950195 154.75844727 72.79296875 155.99609375 C73.14137817 157.59215454 73.14137817 157.59215454 73.49682617 159.22045898 C74 162 74 162 74 166 C72.27709395 166.70304222 70.54632534 167.38683491 68.8125 168.0625 C67.84957031 168.44535156 66.88664062 168.82820312 65.89453125 169.22265625 C62.79065325 170.05622133 61.05080883 169.88679818 58 169 C58 168.01 58 167.02 58 166 C57.34569 166.0199855 56.69138 166.03997101 56.01724243 166.06056213 C49.17129012 166.26057367 42.3261747 166.39577775 35.47802734 166.49438477 C32.92690286 166.53948448 30.37600893 166.60078356 27.82568359 166.67895508 C24.14623028 166.78886456 20.46986486 166.83933194 16.7890625 166.87890625 C15.65949127 166.92535782 14.52992004 166.97180939 13.36611938 167.01966858 C6.83324142 167.02377915 3.41397717 166.09997191 -1.48461914 161.64868164 C-2.23892715 160.85909561 -2.99323517 160.06950958 -3.770401 159.2559967 C-7.35175802 155.63223762 -11.64803798 153.35148918 -16.0625 150.875 C-34.12647059 140.62058824 -34.12647059 140.62058824 -36 135 C-8.28 135 19.44 135 48 135 C47.01 130.71 46.02 126.42 45 122 C44.505 118.535 44.505 118.535 44 115 C2.915 114.505 2.915 114.505 -39 114 C-37.875 102.75 -37.875 102.75 -37.02734375 98.6484375 C-36.85009766 97.77832031 -36.67285156 96.90820312 -36.49023438 96.01171875 C-36.30783203 95.14160156 -36.12542969 94.27148438 -35.9375 93.375 C-35.75123047 92.46621094 -35.56496094 91.55742188 -35.37304688 90.62109375 C-34.91982704 88.4130997 -34.46210307 86.20614876 -34 84 C-29.21034171 83.22562784 -24.62929469 82.87770471 -19.77954102 82.88647461 C-19.09576889 82.88632858 -18.41199677 82.88618256 -17.70750427 82.8860321 C-15.47293803 82.88672245 -13.23845772 82.89447323 -11.00390625 82.90234375 C-9.44449407 82.90421105 -7.88508131 82.90563348 -6.32566833 82.90663147 C-2.24043124 82.91043204 1.84476975 82.92024109 5.92999268 82.93133545 C10.10631828 82.94160269 14.28264976 82.94614043 18.45898438 82.95117188 C26.6393394 82.96186577 34.8196652 82.97891235 43 83 C42.99476318 82.44538086 42.98952637 81.89076172 42.98413086 81.31933594 C42.96328969 78.79623557 42.95031718 76.27315336 42.9375 73.75 C42.92912109 72.87730469 42.92074219 72.00460938 42.91210938 71.10546875 C42.90888672 70.26113281 42.90566406 69.41679688 42.90234375 68.546875 C42.89710693 67.77182617 42.89187012 66.99677734 42.88647461 66.19824219 C43 64 43 64 44 60 C19.25 60 -5.5 60 -31 60 C-30 50 -30 50 -25 28 C-0.25 28 24.5 28 50 28 C50.33 25.36 50.66 22.72 51 20 C52.32 16.04 53.64 12.08 55 8 C35.53 8 16.06 8 -4 8 C-2 3 -2 3 0 0 Z " fill="#000000" transform="translate(168,9)"/>
<path d="M0 0 C75.24 0 150.48 0 228 0 C233.02439024 12.56097561 233.02439024 12.56097561 232 17 C228.54833805 20.68610319 224.74919373 23.29491522 219.65788269 23.73828697 C218.06401721 23.76318149 216.46942433 23.75577609 214.87573242 23.7215271 C213.54853369 23.72921692 213.54853369 23.72921692 212.19452286 23.7370621 C209.24741558 23.74689828 206.30238524 23.71402524 203.35546875 23.68115234 C201.23608956 23.67945891 199.11670686 23.68041184 196.99732971 23.68380737 C191.25594122 23.68552669 185.51530704 23.65028614 179.77409363 23.60836363 C173.7696822 23.57081945 167.76525289 23.56732833 161.76074219 23.56021118 C150.39585819 23.54157327 139.03132108 23.49235013 127.66658974 23.43211424 C114.72594978 23.36501661 101.78529313 23.33205185 88.84452248 23.30194163 C62.22948944 23.23925047 35.61476417 23.13373557 9 23 C7.66671461 20.86492112 6.3593921 18.71955302 5.0625 16.5625 C4.68931641 15.97017578 4.31613281 15.37785156 3.93164062 14.76757812 C0.73828402 9.38777916 0.7616744 6.85506962 0 0 Z " fill="#000000" transform="translate(178,546)"/>
<path d="M0 0 C70.62 0 141.24 0 214 0 C217.4 10.2 217.4 10.2 217.3125 14.3125 C217.30863281 15.11300781 217.30476562 15.91351562 217.30078125 16.73828125 C217 19 217 19 215 23 C142.4 23 69.8 23 -5 23 C-5 13 -5 13 0 0 Z " fill="#000000" transform="translate(482,546)"/>
<path d="M0 0 C65.67 0 131.34 0 199 0 C199.99 6.435 199.99 6.435 201 13 C201.33 13.99 201.66 14.98 202 16 C202 18.31 202 20.62 202 23 C135.34 23 68.68 23 0 23 C0 15.41 0 7.82 0 0 Z " fill="#000000" transform="translate(189,493)"/>
<path d="M0 0 C64.02 0 128.04 0 194 0 C194.99 3.96 194.99 3.96 196 8 C196.37125 8.969375 196.7425 9.93875 197.125 10.9375 C198 14 198 14 198 23 C132 23 66 23 -2 23 C-2 9 -2 9 0 0 Z " fill="#000000" transform="translate(493,494)"/>
<path d="M0 0 C1.04313575 -0.00188513 2.0862715 -0.00377026 3.16101742 -0.00571251 C4.9582626 -0.02686119 4.9582626 -0.02686119 6.79181576 -0.04843712 C8.76700443 -0.03325539 8.76700443 -0.03325539 10.78209591 -0.01776695 C12.18189794 -0.02454229 13.58169105 -0.03344495 14.98146725 -0.04431725 C18.79044909 -0.06715954 22.59875538 -0.05824623 26.40774941 -0.04242182 C30.40721932 -0.02975057 34.40663187 -0.04150979 38.40610409 -0.04935265 C45.1391244 -0.05846148 51.87187106 -0.04644567 58.60484982 -0.02264977 C66.3465599 0.00439855 74.08760819 -0.00412764 81.82930142 -0.03178179 C88.49801006 -0.05463611 95.16652174 -0.05758917 101.83525699 -0.04458845 C105.80753544 -0.03686129 109.77950571 -0.03555993 113.75176334 -0.05227089 C139.33715424 -0.14505411 162.8325387 2.52035062 184.41661739 17.6292057 C186.41661739 19.6292057 186.41661739 19.6292057 186.41661739 22.6292057 C119.75661739 22.6292057 53.09661739 22.6292057 -15.58338261 22.6292057 C-14.58338261 13.6292057 -14.58338261 13.6292057 -12.62244511 11.1760807 C-11.82580448 10.58311195 -11.02916386 9.9901432 -10.20838261 9.3792057 C-6.66927536 6.71455025 -6.66927536 6.71455025 -4.30324745 3.0487709 C-2.58338261 0.6292057 -2.58338261 0.6292057 0 0 Z " fill="#000000" transform="translate(212.58338260650635,440.37079429626465)"/>
<path d="M0 0 C7.43038323 -0.09101186 14.86065487 -0.16264025 22.29144001 -0.21146393 C26.36632818 -0.23839086 30.44082541 -0.2726467 34.51547241 -0.32507324 C38.38417942 -0.37387393 42.25228917 -0.39807158 46.12129211 -0.40372849 C47.55775822 -0.40991802 48.99421565 -0.42475587 50.43049622 -0.44865799 C52.40159209 -0.48003711 54.37314155 -0.47747876 56.34448242 -0.47314453 C58.00878548 -0.48527481 58.00878548 -0.48527481 59.70671082 -0.49765015 C62.4375 0.11035156 62.4375 0.11035156 64.25971985 2.51010132 C64.9795934 4.09940589 65.68771445 5.69418529 66.375 7.29785156 C67.29326245 9.25810374 67.29326245 9.25810374 69.30078125 9.97753906 C71.83240372 11.31971551 72.99430736 12.75177973 74.6875 15.04785156 C75.46867187 16.08232422 75.46867187 16.08232422 76.265625 17.13769531 C77.4375 19.11035156 77.4375 19.11035156 77.4375 22.11035156 C15.3975 22.11035156 -46.6425 22.11035156 -110.5625 22.11035156 C-110.5625 21.45035156 -110.5625 20.79035156 -110.5625 20.11035156 C-99.554226 13.5293182 -88.49669053 10.24732507 -75.97363281 7.5456543 C-74.80026367 7.28341064 -73.62689453 7.02116699 -72.41796875 6.75097656 C-71.36246826 6.52958008 -70.30696777 6.30818359 -69.21948242 6.08007812 C-66.42987226 5.37364409 -66.42987226 5.37364409 -65.29492188 3.04589844 C-63.17284712 0.67501221 -62.5007454 0.77346232 -59.4074707 0.56445312 C-57.60143342 0.52267639 -55.79480002 0.50340311 -53.98828125 0.50097656 C-52.98849243 0.4841684 -51.98870361 0.46736023 -50.95861816 0.45004272 C-47.59732744 0.39960484 -44.23660794 0.37899237 -40.875 0.36035156 C-38.51195256 0.33577187 -36.1489153 0.31019595 -33.78588867 0.28369141 C-28.59427544 0.23075957 -23.40273633 0.19361547 -18.2109375 0.16601562 C-12.14027286 0.13330607 -6.07029167 0.07449445 0 0 Z " fill="#000000" transform="translate(601.5625,440.8896484375)"/>
<path d="M0 0 C4.19778936 0.01040127 8.39558514 0.01483287 12.59338379 0.01983643 C20.76657796 0.03042331 28.93974171 0.04739155 37.11291504 0.06866455 C36.33872214 3.44216788 35.15950075 6.00798158 33.42541504 9.0178833 C32.89174316 9.94794189 32.35807129 10.87800049 31.80822754 11.83624268 C31.24877441 12.79981689 30.68932129 13.76339111 30.11291504 14.75616455 C29.55346191 15.73134033 28.99400879 16.70651611 28.41760254 17.71124268 C24.26708684 24.91449275 24.26708684 24.91449275 23.11291504 26.06866455 C19.30994849 26.70249231 17.25278485 26.83560099 13.99963379 24.64678955 C12.49476937 23.3958543 10.99363479 22.14042217 9.49572754 20.88116455 C3.78707981 16.5388489 -3.39854348 14.82058391 -10.21374512 12.8928833 C-12.7617633 12.10730253 -15.16169177 11.1527388 -17.62927246 10.14678955 C-25.23667173 7.35606812 -33.0877009 6.42203044 -41.07458496 5.31866455 C-42.61445373 5.09708436 -44.15416908 4.87443532 -45.69372559 4.6506958 C-49.42319463 4.11103606 -53.1544293 3.5858032 -56.88708496 3.06866455 C-56.88708496 2.40866455 -56.88708496 1.74866455 -56.88708496 1.06866455 C-37.92581909 -0.10500208 -18.98773658 -0.05217186 0 0 Z " fill="#000000" transform="translate(616.8870849609375,598.9313354492188)"/>
<path d="M0 0 C4.65901308 -0.02495763 9.31798614 -0.04298042 13.97705078 -0.05493164 C15.55778686 -0.05992073 17.13851841 -0.06671438 18.71923828 -0.07543945 C27.21918732 -0.1211381 35.55109515 -0.07516124 44 1 C44 1.66 44 2.32 44 3 C41.58394775 3.81436587 39.16720002 4.62655397 36.75 5.4375 C35.72712891 5.78264648 35.72712891 5.78264648 34.68359375 6.13476562 C29.33715402 7.9255634 29.33715402 7.9255634 26.59375 8.53125 C24.75788456 8.87663432 24.75788456 8.87663432 23.75 11.0625 C23.5025 11.701875 23.255 12.34125 23 13 C22.34 13 21.68 13 21 13 C20.690625 13.639375 20.38125 14.27875 20.0625 14.9375 C19 17 19 17 18 18 C15.8203125 18.203125 15.8203125 18.203125 13.125 18.25 C12.24070313 18.27578125 11.35640625 18.3015625 10.4453125 18.328125 C8 18 8 18 6.34765625 16.859375 C4.55073641 14.38014647 3.46877775 11.83340134 2.3125 9 C1.87550781 7.948125 1.43851563 6.89625 0.98828125 5.8125 C0 3 0 3 0 0 Z " fill="#000000" transform="translate(229,599)"/>
</svg>
